<?xml version="1.0" encoding="UTF-8"?><svg xmlns="http://www.w3.org/2000/svg" xmlns:xlink="http://www.w3.org/1999/xlink" fill-opacity="1" color-rendering="auto" color-interpolation="auto" text-rendering="auto" stroke="black" stroke-linecap="square" width="611" stroke-miterlimit="10" shape-rendering="auto" stroke-opacity="1" fill="black" stroke-dasharray="none" font-weight="normal" stroke-width="1" height="321" font-family="'Dialog'" font-style="normal" stroke-linejoin="miter" font-size="12px" stroke-dashoffset="0" image-rendering="auto">
  <!--Generated by ySVG 2.5-->
  <defs id="genericDefs"/>
  <g>
    <g fill="white" text-rendering="geometricPrecision" shape-rendering="geometricPrecision" transform="translate(-243,25)" stroke="white">
      <rect x="243" width="611" height="321" y="-25" clip-path="url(#clipPath2)" stroke="none"/>
    </g>
    <g fill="rgb(204,255,204)" text-rendering="geometricPrecision" shape-rendering="geometricPrecision" transform="matrix(1,0,0,1,-243,25)" stroke="rgb(204,255,204)">
      <rect x="558.2" width="100.8" height="28" y="104.7" clip-path="url(#clipPath2)" stroke="none"/>
    </g>
    <g text-rendering="geometricPrecision" stroke-miterlimit="1.45" shape-rendering="geometricPrecision" transform="matrix(1,0,0,1,-243,25)" stroke-linecap="butt">
      <rect fill="none" x="558.2" width="100.8" height="28" y="104.7" clip-path="url(#clipPath2)"/>
      <text x="581.5912" xml:space="preserve" y="123.4139" clip-path="url(#clipPath2)" font-family="sans-serif" stroke="none">sortmerna</text>
    </g>
    <g fill="rgb(204,255,204)" text-rendering="geometricPrecision" shape-rendering="geometricPrecision" transform="matrix(1,0,0,1,-243,25)" stroke="rgb(204,255,204)">
      <rect x="364" width="91.2" height="28" y="124.2" clip-path="url(#clipPath2)" stroke="none"/>
    </g>
    <g text-rendering="geometricPrecision" stroke-miterlimit="1.45" shape-rendering="geometricPrecision" transform="matrix(1,0,0,1,-243,25)" stroke-linecap="butt">
      <rect fill="none" x="364" width="91.2" height="28" y="124.2" clip-path="url(#clipPath2)"/>
      <text x="382.9193" xml:space="preserve" y="142.9139" clip-path="url(#clipPath2)" font-family="sans-serif" stroke="none">Reads file</text>
    </g>
    <g fill="rgb(204,255,204)" text-rendering="geometricPrecision" shape-rendering="geometricPrecision" transform="matrix(1,0,0,1,-243,25)" stroke="rgb(204,255,204)">
      <rect x="364" width="91.2" height="28" y="29.8" clip-path="url(#clipPath2)" stroke="none"/>
    </g>
    <g text-rendering="geometricPrecision" stroke-miterlimit="1.45" shape-rendering="geometricPrecision" transform="matrix(1,0,0,1,-243,25)" stroke-linecap="butt">
      <rect fill="none" x="364" width="91.2" height="28" y="29.8" clip-path="url(#clipPath2)"/>
      <text x="369.5805" xml:space="preserve" y="48.5139" clip-path="url(#clipPath2)" font-family="sans-serif" stroke="none">Reference files</text>
    </g>
    <g text-rendering="geometricPrecision" shape-rendering="geometricPrecision" transform="matrix(1,0,0,1,51.75,92.1935)">
      <g clip-path="url(#clipPath3)">
        <svg xml:space="preserve" opacity="1" writing-mode="lr-tb" stop-color="rgb(0, 0, 0)" shape-rendering="auto" glyph-orientation-horizontal="0deg" color-profile="auto" lighting-color="rgb(255, 255, 255)" color="rgb(0, 0, 0)" font-weight="400" alignment-baseline="auto" font-style="normal" version="1.1" color-interpolation-filters="linearrgb" text-anchor="start" stroke-linecap="butt" color-interpolation="srgb" font-variant="normal" word-spacing="normal" fill-opacity="1" text-rendering="auto" clip-path="none" text-decoration="none" letter-spacing="normal" viewBox="0 0 40 48" glyph-orientation-vertical="auto" display="inline" font-size-adjust="none" overflow="visible" fill="rgb(0, 0, 0)" font-stretch="normal" stroke-dasharray="none" stroke-miterlimit="4" stop-opacity="1" color-rendering="auto" font-size="12" pointer-events="visiblepainted" mask="none" direction="ltr" baseline-shift="baseline" enable-background="new 0 0 40 48" fill-rule="nonzero" image-rendering="auto" stroke-dashoffset="0" width="40px" marker-end="none" clip="auto" cursor="auto" stroke="none" filter="none" visibility="visible" kerning="auto" stroke-width="1" font-family="&quot;Arial&quot;,&quot;Helvetica&quot;,sans-serif" flood-opacity="1" clip-rule="nonzero" src="none" height="48px" unicode-bidi="normal" stroke-linejoin="miter" stroke-opacity="1" flood-color="rgb(0, 0, 0)" dominant-baseline="auto" marker-start="none" x="0px" marker-mid="none" y="0px">
<defs>
<clipPath clipPathUnits="userSpaceOnUse" id="clipPath1">
              <path d="M0 0 L611 0 L611 321 L0 321 L0 0 Z"/>
            </clipPath>
            <clipPath clipPathUnits="userSpaceOnUse" id="clipPath2">
              <path d="M243 -25 L854 -25 L854 296 L243 296 L243 -25 Z"/>
            </clipPath>
            <clipPath clipPathUnits="userSpaceOnUse" id="clipPath3">
              <path d="M-51.75 -92.1935 L559.25 -92.1935 L559.25 228.8065 L-51.75 228.8065 L-51.75 -92.1935 Z"/>
            </clipPath>
          </defs>
<linearGradient gradientTransform="matrix(1 0 0 1 -370.2002 -614.5742)" x1="370.2002" x2="409.4502" gradientUnits="userSpaceOnUse" y1="655.0938" y2="655.0938" id="svg1.SVGID_1_">
	<stop offset="0" style="stop-color:#4D4D4D"/>
	<stop offset="0.0558" style="stop-color:#5F5F5F"/>
	<stop offset="0.2103" style="stop-color:#8D8D8D"/>
	<stop offset="0.3479" style="stop-color:#AEAEAE"/>
	<stop offset="0.4623" style="stop-color:#C2C2C2"/>
	<stop offset="0.5394" style="stop-color:#C9C9C9"/>
	<stop offset="0.6247" style="stop-color:#C5C5C5"/>
	<stop offset="0.7072" style="stop-color:#BABABA"/>
	<stop offset="0.7885" style="stop-color:#A6A6A6"/>
	<stop offset="0.869" style="stop-color:#8B8B8B"/>
	<stop offset="0.9484" style="stop-color:#686868"/>
	<stop offset="1" style="stop-color:#4D4D4D"/>
</linearGradient>
<path fill="url(#svg1.SVGID_1_)" d="M19.625,37.613C8.787,37.613,0,35.738,0,33.425v10c0,2.313,8.787,4.188,19.625,4.188  c10.839,0,19.625-1.875,19.625-4.188v-10C39.25,35.738,30.464,37.613,19.625,37.613z"/>
<linearGradient gradientTransform="matrix(1 0 0 1 -370.2002 -614.5742)" x1="370.2002" x2="409.4502" gradientUnits="userSpaceOnUse" y1="649.0938" y2="649.0938" id="svg1.SVGID_2_">
	<stop offset="0" style="stop-color:#B3B3B3"/>
	<stop offset="0.0171" style="stop-color:#B6B6B6"/>
	<stop offset="0.235" style="stop-color:#D7D7D7"/>
	<stop offset="0.4168" style="stop-color:#EBEBEB"/>
	<stop offset="0.5394" style="stop-color:#F2F2F2"/>
	<stop offset="0.6579" style="stop-color:#EEEEEE"/>
	<stop offset="0.7724" style="stop-color:#E3E3E3"/>
	<stop offset="0.8853" style="stop-color:#CFCFCF"/>
	<stop offset="0.9965" style="stop-color:#B4B4B4"/>
	<stop offset="1" style="stop-color:#B3B3B3"/>
</linearGradient>
<path fill="url(#svg1.SVGID_2_)" d="M19.625,37.613c10.839,0,19.625-1.875,19.625-4.188l-1.229-2c0,2.168-8.235,3.927-18.396,3.927  c-9.481,0-17.396-1.959-18.396-3.927l-1.229,2C0,35.738,8.787,37.613,19.625,37.613z"/>
<linearGradient gradientTransform="matrix(1 0 0 1 -370.2002 -614.5742)" x1="371.4297" x2="408.2217" gradientUnits="userSpaceOnUse" y1="646" y2="646" id="svg1.SVGID_3_">
	<stop offset="0" style="stop-color:#C9C9C9"/>
	<stop offset="1" style="stop-color:#808080"/>
</linearGradient>
<ellipse rx="18.396" fill="url(#svg1.SVGID_3_)" ry="3.926" cx="19.625" cy="31.425"/>
<linearGradient gradientTransform="matrix(1 0 0 1 -370.2002 -614.5742)" x1="370.2002" x2="409.4502" gradientUnits="userSpaceOnUse" y1="641.0938" y2="641.0938" id="svg1.SVGID_4_">
	<stop offset="0" style="stop-color:#4D4D4D"/>
	<stop offset="0.0558" style="stop-color:#5F5F5F"/>
	<stop offset="0.2103" style="stop-color:#8D8D8D"/>
	<stop offset="0.3479" style="stop-color:#AEAEAE"/>
	<stop offset="0.4623" style="stop-color:#C2C2C2"/>
	<stop offset="0.5394" style="stop-color:#C9C9C9"/>
	<stop offset="0.6247" style="stop-color:#C5C5C5"/>
	<stop offset="0.7072" style="stop-color:#BABABA"/>
	<stop offset="0.7885" style="stop-color:#A6A6A6"/>
	<stop offset="0.869" style="stop-color:#8B8B8B"/>
	<stop offset="0.9484" style="stop-color:#686868"/>
	<stop offset="1" style="stop-color:#4D4D4D"/>
</linearGradient>
<path fill="url(#svg1.SVGID_4_)" d="M19.625,23.613C8.787,23.613,0,21.738,0,19.425v10c0,2.313,8.787,4.188,19.625,4.188  c10.839,0,19.625-1.875,19.625-4.188v-10C39.25,21.738,30.464,23.613,19.625,23.613z"/>
<linearGradient gradientTransform="matrix(1 0 0 1 -370.2002 -614.5742)" x1="370.2002" x2="409.4502" gradientUnits="userSpaceOnUse" y1="635.0938" y2="635.0938" id="svg1.SVGID_5_">
	<stop offset="0" style="stop-color:#B3B3B3"/>
	<stop offset="0.0171" style="stop-color:#B6B6B6"/>
	<stop offset="0.235" style="stop-color:#D7D7D7"/>
	<stop offset="0.4168" style="stop-color:#EBEBEB"/>
	<stop offset="0.5394" style="stop-color:#F2F2F2"/>
	<stop offset="0.6579" style="stop-color:#EEEEEE"/>
	<stop offset="0.7724" style="stop-color:#E3E3E3"/>
	<stop offset="0.8853" style="stop-color:#CFCFCF"/>
	<stop offset="0.9965" style="stop-color:#B4B4B4"/>
	<stop offset="1" style="stop-color:#B3B3B3"/>
</linearGradient>
<path fill="url(#svg1.SVGID_5_)" d="M19.625,23.613c10.839,0,19.625-1.875,19.625-4.188l-1.229-2c0,2.168-8.235,3.926-18.396,3.926  c-9.481,0-17.396-1.959-18.396-3.926l-1.229,2C0,21.738,8.787,23.613,19.625,23.613z"/>
<linearGradient gradientTransform="matrix(1 0 0 1 -370.2002 -614.5742)" x1="371.4297" x2="408.2217" gradientUnits="userSpaceOnUse" y1="632" y2="632" id="svg1.SVGID_6_">
	<stop offset="0" style="stop-color:#C9C9C9"/>
	<stop offset="1" style="stop-color:#808080"/>
</linearGradient>
<ellipse rx="18.396" fill="url(#svg1.SVGID_6_)" ry="3.926" cx="19.625" cy="17.426"/>
<linearGradient gradientTransform="matrix(1 0 0 1 -370.2002 -614.5742)" x1="370.2002" x2="409.4502" gradientUnits="userSpaceOnUse" y1="627.5938" y2="627.5938" id="svg1.SVGID_7_">
	<stop offset="0" style="stop-color:#4D4D4D"/>
	<stop offset="0.0558" style="stop-color:#5F5F5F"/>
	<stop offset="0.2103" style="stop-color:#8D8D8D"/>
	<stop offset="0.3479" style="stop-color:#AEAEAE"/>
	<stop offset="0.4623" style="stop-color:#C2C2C2"/>
	<stop offset="0.5394" style="stop-color:#C9C9C9"/>
	<stop offset="0.6247" style="stop-color:#C5C5C5"/>
	<stop offset="0.7072" style="stop-color:#BABABA"/>
	<stop offset="0.7885" style="stop-color:#A6A6A6"/>
	<stop offset="0.869" style="stop-color:#8B8B8B"/>
	<stop offset="0.9484" style="stop-color:#686868"/>
	<stop offset="1" style="stop-color:#4D4D4D"/>
</linearGradient>
<path fill="url(#svg1.SVGID_7_)" d="M19.625,10.113C8.787,10.113,0,8.238,0,5.925v10c0,2.313,8.787,4.188,19.625,4.188  c10.839,0,19.625-1.875,19.625-4.188v-10C39.25,8.238,30.464,10.113,19.625,10.113z"/>
<linearGradient gradientTransform="matrix(1 0 0 1 -370.2002 -614.5742)" x1="370.2002" x2="409.4502" gradientUnits="userSpaceOnUse" y1="621.5938" y2="621.5938" id="svg1.SVGID_8_">
	<stop offset="0" style="stop-color:#B3B3B3"/>
	<stop offset="0.0171" style="stop-color:#B6B6B6"/>
	<stop offset="0.235" style="stop-color:#D7D7D7"/>
	<stop offset="0.4168" style="stop-color:#EBEBEB"/>
	<stop offset="0.5394" style="stop-color:#F2F2F2"/>
	<stop offset="0.6579" style="stop-color:#EEEEEE"/>
	<stop offset="0.7724" style="stop-color:#E3E3E3"/>
	<stop offset="0.8853" style="stop-color:#CFCFCF"/>
	<stop offset="0.9965" style="stop-color:#B4B4B4"/>
	<stop offset="1" style="stop-color:#B3B3B3"/>
</linearGradient>
<path fill="url(#svg1.SVGID_8_)" d="M19.625,10.113c10.839,0,19.625-1.875,19.625-4.188l-1.229-2c0,2.168-8.235,3.926-18.396,3.926  c-9.481,0-17.396-1.959-18.396-3.926L0,5.925C0,8.238,8.787,10.113,19.625,10.113z"/>
<linearGradient gradientTransform="matrix(1 0 0 1 -370.2002 -614.5742)" x1="371.4297" x2="408.2217" gradientUnits="userSpaceOnUse" y1="618.5" y2="618.5" id="svg1.SVGID_9_">
	<stop offset="0" style="stop-color:#C9C9C9"/>
	<stop offset="1" style="stop-color:#808080"/>
</linearGradient>
<ellipse rx="18.396" fill="url(#svg1.SVGID_9_)" ry="3.926" cx="19.625" cy="3.926"/>
<path fill="#FFFFFF" d="M31.291,46.792c0,0-4.313,0.578-7.249,0.694  C20.917,47.613,15,47.613,15,47.613l-2.443-10.279l-0.119-2.283l-1.231-1.842L9.789,23.024l-0.082-0.119L9.3,20.715l-1.45-1.44  L5.329,8.793c0,0,5.296,0.882,7.234,1.07s8.375,0.25,8.375,0.25l3,9.875l-0.25,1.313l1.063,2.168l2.312,9.644l-0.375,1.875  l1.627,2.193L31.291,46.792z" enable-background="new    " opacity="0.24"/>
</svg>
      </g>
    </g>
    <g text-rendering="geometricPrecision" stroke-miterlimit="1.45" shape-rendering="geometricPrecision" font-family="sans-serif" transform="matrix(1,0,0,1,-243,25)" stroke-linecap="butt">
      <text x="260.434" xml:space="preserve" y="95.7139" clip-path="url(#clipPath2)" stroke="none">Disk</text>
    </g>
    <g fill="rgb(204,255,204)" text-rendering="geometricPrecision" shape-rendering="geometricPrecision" transform="matrix(1,0,0,1,-243,25)" stroke="rgb(204,255,204)">
      <rect x="364" width="91.2" height="28" y="77" clip-path="url(#clipPath2)" stroke="none"/>
    </g>
    <g text-rendering="geometricPrecision" stroke-miterlimit="1.45" shape-rendering="geometricPrecision" transform="matrix(1,0,0,1,-243,25)" stroke-linecap="butt">
      <rect fill="none" x="364" width="91.2" height="28" y="77" clip-path="url(#clipPath2)"/>
      <text x="394.9223" xml:space="preserve" y="95.7139" clip-path="url(#clipPath2)" font-family="sans-serif" stroke="none">Index</text>
    </g>
    <g fill="rgb(204,255,204)" text-rendering="geometricPrecision" shape-rendering="geometricPrecision" transform="matrix(1,0,0,1,-243,25)" stroke="rgb(204,255,204)">
      <rect x="726" width="112.8" height="23.2" y="38.6" clip-path="url(#clipPath2)" stroke="none"/>
    </g>
    <g text-rendering="geometricPrecision" stroke-miterlimit="1.45" shape-rendering="geometricPrecision" transform="matrix(1,0,0,1,-243,25)" stroke-linecap="butt">
      <rect fill="none" x="726" width="112.8" height="23.2" y="38.6" clip-path="url(#clipPath2)"/>
      <text x="737.3912" xml:space="preserve" y="54.9139" clip-path="url(#clipPath2)" font-family="sans-serif" stroke="none">Blast file (--blast)</text>
    </g>
    <g fill="rgb(204,255,204)" text-rendering="geometricPrecision" shape-rendering="geometricPrecision" transform="matrix(1,0,0,1,-243,25)" stroke="rgb(204,255,204)">
      <rect x="726" width="112.8" height="23.2" y="82.6" clip-path="url(#clipPath2)" stroke="none"/>
    </g>
    <g text-rendering="geometricPrecision" stroke-miterlimit="1.45" shape-rendering="geometricPrecision" transform="matrix(1,0,0,1,-243,25)" stroke-linecap="butt">
      <rect fill="none" x="726" width="112.8" height="23.2" y="82.6" clip-path="url(#clipPath2)"/>
      <text x="735.7272" xml:space="preserve" y="98.9139" clip-path="url(#clipPath2)" font-family="sans-serif" stroke="none">Fasta file (--fastx)</text>
    </g>
    <g fill="rgb(204,255,204)" text-rendering="geometricPrecision" shape-rendering="geometricPrecision" transform="matrix(1,0,0,1,-243,25)" stroke="rgb(204,255,204)">
      <rect x="726" width="112.8" height="23.2" y="126.6" clip-path="url(#clipPath2)" stroke="none"/>
    </g>
    <g text-rendering="geometricPrecision" stroke-miterlimit="1.45" shape-rendering="geometricPrecision" transform="matrix(1,0,0,1,-243,25)" stroke-linecap="butt">
      <rect fill="none" x="726" width="112.8" height="23.2" y="126.6" clip-path="url(#clipPath2)"/>
      <text x="752.3824" xml:space="preserve" y="142.9139" clip-path="url(#clipPath2)" font-family="sans-serif" stroke="none">Denovo file</text>
    </g>
    <g fill="rgb(204,255,204)" text-rendering="geometricPrecision" shape-rendering="geometricPrecision" transform="matrix(1,0,0,1,-243,25)" stroke="rgb(204,255,204)">
      <rect x="726" width="112.8" height="23.2" y="170.6" clip-path="url(#clipPath2)" stroke="none"/>
    </g>
    <g text-rendering="geometricPrecision" stroke-miterlimit="1.45" shape-rendering="geometricPrecision" transform="matrix(1,0,0,1,-243,25)" stroke-linecap="butt">
      <rect fill="none" x="726" width="112.8" height="23.2" y="170.6" clip-path="url(#clipPath2)"/>
      <text x="739.067" xml:space="preserve" y="186.9139" clip-path="url(#clipPath2)" font-family="sans-serif" stroke="none">SAM file (--sam)</text>
    </g>
    <g fill="rgb(204,255,204)" text-rendering="geometricPrecision" shape-rendering="geometricPrecision" transform="matrix(1,0,0,1,-243,25)" stroke="rgb(204,255,204)">
      <rect x="726" width="112.8" height="23.2" y="214.6" clip-path="url(#clipPath2)" stroke="none"/>
    </g>
    <g text-rendering="geometricPrecision" stroke-miterlimit="1.45" shape-rendering="geometricPrecision" transform="matrix(1,0,0,1,-243,25)" stroke-linecap="butt">
      <rect fill="none" x="726" width="112.8" height="23.2" y="214.6" clip-path="url(#clipPath2)"/>
      <text x="745.3864" xml:space="preserve" y="230.9139" clip-path="url(#clipPath2)" font-family="sans-serif" stroke="none">Log file (--log)</text>
    </g>
    <g fill="rgb(144,232,232)" text-rendering="geometricPrecision" shape-rendering="geometricPrecision" transform="matrix(1,0,0,1,-243,25)" stroke="rgb(144,232,232)">
      <rect x="364" width="123.2" height="18.4" y="-9.8" clip-path="url(#clipPath2)" stroke="none"/>
    </g>
    <g text-rendering="geometricPrecision" stroke-miterlimit="1.45" shape-rendering="geometricPrecision" transform="matrix(1,0,0,1,-243,25)" stroke-linecap="butt">
      <rect fill="none" x="364" width="123.2" height="18.4" y="-9.8" clip-path="url(#clipPath2)"/>
      <text x="412.2553" xml:space="preserve" y="4.1139" clip-path="url(#clipPath2)" font-family="sans-serif" stroke="none">Input</text>
    </g>
    <g fill="rgb(144,232,232)" text-rendering="geometricPrecision" shape-rendering="geometricPrecision" transform="matrix(1,0,0,1,-243,25)" stroke="rgb(144,232,232)">
      <rect x="532.6" width="136.8" height="18.4" y="-9.8" clip-path="url(#clipPath2)" stroke="none"/>
    </g>
    <g text-rendering="geometricPrecision" stroke-miterlimit="1.45" shape-rendering="geometricPrecision" transform="matrix(1,0,0,1,-243,25)" stroke-linecap="butt">
      <rect fill="none" x="532.6" width="136.8" height="18.4" y="-9.8" clip-path="url(#clipPath2)"/>
      <text x="579.9883" xml:space="preserve" y="4.1139" clip-path="url(#clipPath2)" font-family="sans-serif" stroke="none">binaries</text>
    </g>
    <g fill="rgb(144,232,232)" text-rendering="geometricPrecision" shape-rendering="geometricPrecision" transform="matrix(1,0,0,1,-243,25)" stroke="rgb(144,232,232)">
      <rect x="702" width="136.8" height="18.4" y="-9.8" clip-path="url(#clipPath2)" stroke="none"/>
    </g>
    <g text-rendering="geometricPrecision" stroke-miterlimit="1.45" shape-rendering="geometricPrecision" transform="matrix(1,0,0,1,-243,25)" stroke-linecap="butt">
      <rect fill="none" x="702" width="136.8" height="18.4" y="-9.8" clip-path="url(#clipPath2)"/>
      <text x="752.3883" xml:space="preserve" y="4.1139" clip-path="url(#clipPath2)" font-family="sans-serif" stroke="none">Output</text>
    </g>
    <g fill="rgb(204,255,204)" text-rendering="geometricPrecision" shape-rendering="geometricPrecision" transform="matrix(1,0,0,1,-243,25)" stroke="rgb(204,255,204)">
      <rect x="394.6" width="428" height="28" y="253" clip-path="url(#clipPath2)" stroke="none"/>
    </g>
    <g text-rendering="geometricPrecision" stroke-miterlimit="1.45" shape-rendering="geometricPrecision" transform="matrix(1,0,0,1,-243,25)" stroke-linecap="butt">
      <rect fill="none" x="394.6" width="428" height="28" y="253" clip-path="url(#clipPath2)"/>
      <text x="536.2367" xml:space="preserve" y="271.7139" clip-path="url(#clipPath2)" font-family="sans-serif" stroke="none">Key-Value DB (alignments)</text>
    </g>
    <g fill="rgb(204,255,204)" text-rendering="geometricPrecision" shape-rendering="geometricPrecision" transform="matrix(1,0,0,1,-243,25)" stroke="rgb(204,255,204)">
      <rect x="558.2" width="100.8" height="28" y="46.7" clip-path="url(#clipPath2)" stroke="none"/>
    </g>
    <g text-rendering="geometricPrecision" stroke-miterlimit="1.45" shape-rendering="geometricPrecision" transform="matrix(1,0,0,1,-243,25)" stroke-linecap="butt">
      <rect fill="none" x="558.2" width="100.8" height="28" y="46.7" clip-path="url(#clipPath2)"/>
      <text x="587.5824" xml:space="preserve" y="65.4139" clip-path="url(#clipPath2)" font-family="sans-serif" stroke="none">indexdb</text>
      <path fill="none" d="M463.1619 132.9515 L558.2 123.6387" clip-path="url(#clipPath2)"/>
      <path d="M455.2 133.7317 L467.6304 137.5376 L464.1571 132.854 L466.6552 127.5852 Z" clip-path="url(#clipPath2)" stroke="none"/>
      <path fill="none" d="M381.3553 57.8 L334.0309 81.2572" clip-path="url(#clipPath2)"/>
      <path fill="none" d="M334.0198 100.7373 L381.3553 124.2" clip-path="url(#clipPath2)"/>
      <path fill="none" d="M334.0431 91 L364 91" clip-path="url(#clipPath2)"/>
      <path fill="none" stroke-dasharray="12,4" d="M409.6 57.8 L409.6 77" stroke-width="2" clip-path="url(#clipPath2)"/>
      <path fill="none" d="M463.1236 98.4503 L558.2 111.6845" clip-path="url(#clipPath2)"/>
      <path d="M455.2 97.3473 L466.3961 103.954 L464.114 98.5881 L467.7747 94.0495 Z" clip-path="url(#clipPath2)" stroke="none"/>
      <path fill="none" d="M644.1212 104.7 L745.5254 64.7334" clip-path="url(#clipPath2)"/>
      <path d="M752.9682 61.8 L739.9706 61.5484 L744.5951 65.1001 L743.6374 70.8519 Z" clip-path="url(#clipPath2)" stroke="none"/>
      <path fill="none" d="M659 111.5953 L718.0783 103.2672" clip-path="url(#clipPath2)"/>
      <path d="M726 102.1505 L713.4196 98.8745 L717.0881 103.4068 L714.8154 108.7766 Z" clip-path="url(#clipPath2)" stroke="none"/>
      <path fill="none" d="M659 124.3548 L718.0499 130.9801" clip-path="url(#clipPath2)"/>
      <path d="M726 131.872 L714.6323 125.5652 L717.0561 130.8686 L713.5173 135.5029 Z" clip-path="url(#clipPath2)" stroke="none"/>
      <path fill="none" d="M646.9181 132.7 L743.1365 167.8546" clip-path="url(#clipPath2)"/>
      <path d="M750.6507 170.6 L741.0953 161.7855 L742.1973 167.5114 L737.6636 171.1783 Z" clip-path="url(#clipPath2)" stroke="none"/>
      <path fill="none" d="M631.2344 132.7 L756.842 210.3917" clip-path="url(#clipPath2)"/>
      <path d="M763.6458 214.6 L756.0704 204.0353 L755.9916 209.8657 L750.81 212.5399 Z" clip-path="url(#clipPath2)" stroke="none"/>
      <path fill="none" d="M314.375 114.8477 L314.375 267 L394.6 267" clip-path="url(#clipPath2)"/>
      <path fill="none" d="M608.6 132.7 L608.6 245" clip-path="url(#clipPath2)"/>
      <path d="M608.6 253 L613.6 241 L608.6 244 L603.6 241 Z" clip-path="url(#clipPath2)" stroke="none"/>
      <path fill="none" d="M558.2 56.4198 L463.1713 48.3495" clip-path="url(#clipPath2)"/>
      <path d="M455.2 47.6726 L466.7338 53.6701 L464.1677 48.4341 L467.58 43.7059 Z" clip-path="url(#clipPath2)" stroke="none"/>
      <path fill="none" d="M558.2 68.374 L463.1089 82.8527" clip-path="url(#clipPath2)"/>
      <path d="M455.2 84.0569 L467.8159 87.1936 L464.0975 82.7021 L466.3107 77.3075 Z" clip-path="url(#clipPath2)" stroke="none"/>
    </g>
  </g>
</svg>
