<?xml version="1.0" encoding="UTF-8"?><svg xmlns="http://www.w3.org/2000/svg" xmlns:xlink="http://www.w3.org/1999/xlink" fill-opacity="1" color-rendering="auto" color-interpolation="auto" text-rendering="auto" stroke="black" stroke-linecap="square" width="611" stroke-miterlimit="10" shape-rendering="auto" stroke-opacity="1" fill="black" stroke-dasharray="none" font-weight="normal" stroke-width="1" height="321" font-family="'Dialog'" font-style="normal" stroke-linejoin="miter" font-size="12px" stroke-dashoffset="0" image-rendering="auto">
  <!--Generated by ySVG 2.5-->
  <defs id="genericDefs"/>
  <g>
    <g fill="white" text-rendering="geometricPrecision" shape-rendering="geometricPrecision" transform="translate(-243,25)" stroke="white">
      <rect x="243" width="611" height="321" y="-25" clip-path="url(#clipPath2)" stroke="none"/>
    </g>
    <g fill="rgb(204,255,204)" text-rendering="geometricPrecision" shape-rendering="geometricPrecision" transform="matrix(1,0,0,1,-243,25)" stroke="rgb(204,255,204)">
      <rect x="550.6" width="100.8" height="28" y="77" clip-path="url(#clipPath2)" stroke="none"/>
    </g>
    <g text-rendering="geometricPrecision" stroke-miterlimit="1.45" shape-rendering="geometricPrecision" transform="matrix(1,0,0,1,-243,25)" stroke-linecap="butt">
      <rect fill="none" x="550.6" width="100.8" height="28" y="77" clip-path="url(#clipPath2)"/>
      <text x="573.9912" xml:space="preserve" y="95.7139" clip-path="url(#clipPath2)" font-family="sans-serif" stroke="none">sortmerna</text>
    </g>
    <g fill="rgb(204,255,204)" text-rendering="geometricPrecision" shape-rendering="geometricPrecision" transform="matrix(1,0,0,1,-243,25)" stroke="rgb(204,255,204)">
      <rect x="364" width="91.2" height="28" y="124.2" clip-path="url(#clipPath2)" stroke="none"/>
    </g>
    <g text-rendering="geometricPrecision" stroke-miterlimit="1.45" shape-rendering="geometricPrecision" transform="matrix(1,0,0,1,-243,25)" stroke-linecap="butt">
      <rect fill="none" x="364" width="91.2" height="28" y="124.2" clip-path="url(#clipPath2)"/>
      <text x="382.9193" xml:space="preserve" y="142.9139" clip-path="url(#clipPath2)" font-family="sans-serif" stroke="none">Reads file</text>
    </g>
    <g fill="rgb(204,255,204)" text-rendering="geometricPrecision" shape-rendering="geometricPrecision" transform="matrix(1,0,0,1,-243,25)" stroke="rgb(204,255,204)">
      <rect x="364" width="91.2" height="28" y="29.8" clip-path="url(#clipPath2)" stroke="none"/>
    </g>
    <g text-rendering="geometricPrecision" stroke-miterlimit="1.45" shape-rendering="geometricPrecision" transform="matrix(1,0,0,1,-243,25)" stroke-linecap="butt">
      <rect fill="none" x="364" width="91.2" height="28" y="29.8" clip-path="url(#clipPath2)"/>
      <text x="369.5805" xml:space="preserve" y="48.5139" clip-path="url(#clipPath2)" font-family="sans-serif" stroke="none">Reference files</text>
    </g>
    <g text-rendering="geometricPrecision" shape-rendering="geometricPrecision" transform="matrix(1,0,0,1,51.75,92.1935)">
      <g clip-path="url(#clipPath3)">
        <svg xml:space="preserve" opacity="1" writing-mode="lr-tb" stop-color="rgb(0, 0, 0)" shape-rendering="auto" glyph-orientation-horizontal="0deg" color-profile="auto" lighting-color="rgb(255, 255, 255)" color="rgb(0, 0, 0)" font-weight="400" alignment-baseline="auto" font-style="normal" version="1.1" color-interpolation-filters="linearrgb" text-anchor="start" stroke-linecap="butt" color-interpolation="srgb" font-variant="normal" word-spacing="normal" fill-opacity="1" text-rendering="auto" clip-path="none" text-decoration="none" letter-spacing="normal" viewBox="0 0 40 48" glyph-orientation-vertical="auto" display="inline" font-size-adjust="none" overflow="hidden" fill="rgb(0, 0, 0)" font-stretch="normal" stroke-dasharray="none" stroke-miterlimit="4" stop-opacity="1" color-rendering="auto" font-size="12" pointer-events="visiblepainted" mask="none" direction="ltr" baseline-shift="baseline" enable-background="new 0 0 40 48" fill-rule="nonzero" image-rendering="auto" stroke-dashoffset="0" width="40px" marker-end="none" clip="auto" cursor="auto" stroke="none" filter="none" visibility="visible" kerning="auto" stroke-width="1" font-family="&quot;Arial&quot;,&quot;Helvetica&quot;,sans-serif" flood-opacity="1" clip-rule="nonzero" src="none" height="48px" unicode-bidi="normal" stroke-linejoin="miter" stroke-opacity="1" flood-color="rgb(0, 0, 0)" dominant-baseline="auto" marker-start="none" x="0px" marker-mid="none" y="0px">
<defs>
<clipPath clipPathUnits="userSpaceOnUse" id="clipPath1"><path d="M0 0 L611 0 L611 321 L0 321 L0 0 Z"/></clipPath><clipPath clipPathUnits="userSpaceOnUse" id="clipPath2"><path d="M243 -25 L854 -25 L854 296 L243 296 L243 -25 Z"/></clipPath><clipPath clipPathUnits="userSpaceOnUse" id="clipPath3"><path d="M-51.75 -92.1935 L559.25 -92.1935 L559.25 228.8065 L-51.75 228.8065 L-51.75 -92.1935 Z"/></clipPath></defs>
<linearGradient gradientTransform="matrix(1 0 0 1 -370.2002 -614.5742)" x1="370.2002" x2="409.4502" gradientUnits="userSpaceOnUse" y1="655.0938" y2="655.0938" id="svg1.SVGID_1_">
	<stop offset="0" style="stop-color:#4D4D4D"/>
	<stop offset="0.0558" style="stop-color:#5F5F5F"/>
	<stop offset="0.2103" style="stop-color:#8D8D8D"/>
	<stop offset="0.3479" style="stop-color:#AEAEAE"/>
	<stop offset="0.4623" style="stop-color:#C2C2C2"/>
	<stop offset="0.5394" style="stop-color:#C9C9C9"/>
	<stop offset="0.6247" style="stop-color:#C5C5C5"/>
	<stop offset="0.7072" style="stop-color:#BABABA"/>
	<stop offset="0.7885" style="stop-color:#A6A6A6"/>
	<stop offset="0.869" style="stop-color:#8B8B8B"/>
	<stop offset="0.9484" style="stop-color:#686868"/>
	<stop offset="1" style="stop-color:#4D4D4D"/>
</linearGradient>
<path fill="url(#svg1.SVGID_1_)" d="M19.625,37.613C8.787,37.613,0,35.738,0,33.425v10c0,2.313,8.787,4.188,19.625,4.188  c10.839,0,19.625-1.875,19.625-4.188v-10C39.25,35.738,30.464,37.613,19.625,37.613z"/>
<linearGradient gradientTransform="matrix(1 0 0 1 -370.2002 -614.5742)" x1="370.2002" x2="409.4502" gradientUnits="userSpaceOnUse" y1="649.0938" y2="649.0938" id="svg1.SVGID_2_">
	<stop offset="0" style="stop-color:#B3B3B3"/>
	<stop offset="0.0171" style="stop-color:#B6B6B6"/>
	<stop offset="0.235" style="stop-color:#D7D7D7"/>
	<stop offset="0.4168" style="stop-color:#EBEBEB"/>
	<stop offset="0.5394" style="stop-color:#F2F2F2"/>
	<stop offset="0.6579" style="stop-color:#EEEEEE"/>
	<stop offset="0.7724" style="stop-color:#E3E3E3"/>
	<stop offset="0.8853" style="stop-color:#CFCFCF"/>
	<stop offset="0.9965" style="stop-color:#B4B4B4"/>
	<stop offset="1" style="stop-color:#B3B3B3"/>
</linearGradient>
<path fill="url(#svg1.SVGID_2_)" d="M19.625,37.613c10.839,0,19.625-1.875,19.625-4.188l-1.229-2c0,2.168-8.235,3.927-18.396,3.927  c-9.481,0-17.396-1.959-18.396-3.927l-1.229,2C0,35.738,8.787,37.613,19.625,37.613z"/>
<linearGradient gradientTransform="matrix(1 0 0 1 -370.2002 -614.5742)" x1="371.4297" x2="408.2217" gradientUnits="userSpaceOnUse" y1="646" y2="646" id="svg1.SVGID_3_">
	<stop offset="0" style="stop-color:#C9C9C9"/>
	<stop offset="1" style="stop-color:#808080"/>
</linearGradient>
<ellipse rx="18.396" fill="url(#svg1.SVGID_3_)" ry="3.926" cx="19.625" cy="31.425"/>
<linearGradient gradientTransform="matrix(1 0 0 1 -370.2002 -614.5742)" x1="370.2002" x2="409.4502" gradientUnits="userSpaceOnUse" y1="641.0938" y2="641.0938" id="svg1.SVGID_4_">
	<stop offset="0" style="stop-color:#4D4D4D"/>
	<stop offset="0.0558" style="stop-color:#5F5F5F"/>
	<stop offset="0.2103" style="stop-color:#8D8D8D"/>
	<stop offset="0.3479" style="stop-color:#AEAEAE"/>
	<stop offset="0.4623" style="stop-color:#C2C2C2"/>
	<stop offset="0.5394" style="stop-color:#C9C9C9"/>
	<stop offset="0.6247" style="stop-color:#C5C5C5"/>
	<stop offset="0.7072" style="stop-color:#BABABA"/>
	<stop offset="0.7885" style="stop-color:#A6A6A6"/>
	<stop offset="0.869" style="stop-color:#8B8B8B"/>
	<stop offset="0.9484" style="stop-color:#686868"/>
	<stop offset="1" style="stop-color:#4D4D4D"/>
</linearGradient>
<path fill="url(#svg1.SVGID_4_)" d="M19.625,23.613C8.787,23.613,0,21.738,0,19.425v10c0,2.313,8.787,4.188,19.625,4.188  c10.839,0,19.625-1.875,19.625-4.188v-10C39.25,21.738,30.464,23.613,19.625,23.613z"/>
<linearGradient gradientTransform="matrix(1 0 0 1 -370.2002 -614.5742)" x1="370.2002" x2="409.4502" gradientUnits="userSpaceOnUse" y1="635.0938" y2="635.0938" id="svg1.SVGID_5_">
	<stop offset="0" style="stop-color:#B3B3B3"/>
	<stop offset="0.0171" style="stop-color:#B6B6B6"/>
	<stop offset="0.235" style="stop-color:#D7D7D7"/>
	<stop offset="0.4168" style="stop-color:#EBEBEB"/>
	<stop offset="0.5394" style="stop-color:#F2F2F2"/>
	<stop offset="0.6579" style="stop-color:#EEEEEE"/>
	<stop offset="0.7724" style="stop-color:#E3E3E3"/>
	<stop offset="0.8853" style="stop-color:#CFCFCF"/>
	<stop offset="0.9965" style="stop-color:#B4B4B4"/>
	<stop offset="1" style="stop-color:#B3B3B3"/>
</linearGradient>
<path fill="url(#svg1.SVGID_5_)" d="M19.625,23.613c10.839,0,19.625-1.875,19.625-4.188l-1.229-2c0,2.168-8.235,3.926-18.396,3.926  c-9.481,0-17.396-1.959-18.396-3.926l-1.229,2C0,21.738,8.787,23.613,19.625,23.613z"/>
<linearGradient gradientTransform="matrix(1 0 0 1 -370.2002 -614.5742)" x1="371.4297" x2="408.2217" gradientUnits="userSpaceOnUse" y1="632" y2="632" id="svg1.SVGID_6_">
	<stop offset="0" style="stop-color:#C9C9C9"/>
	<stop offset="1" style="stop-color:#808080"/>
</linearGradient>
<ellipse rx="18.396" fill="url(#svg1.SVGID_6_)" ry="3.926" cx="19.625" cy="17.426"/>
<linearGradient gradientTransform="matrix(1 0 0 1 -370.2002 -614.5742)" x1="370.2002" x2="409.4502" gradientUnits="userSpaceOnUse" y1="627.5938" y2="627.5938" id="svg1.SVGID_7_">
	<stop offset="0" style="stop-color:#4D4D4D"/>
	<stop offset="0.0558" style="stop-color:#5F5F5F"/>
	<stop offset="0.2103" style="stop-color:#8D8D8D"/>
	<stop offset="0.3479" style="stop-color:#AEAEAE"/>
	<stop offset="0.4623" style="stop-color:#C2C2C2"/>
	<stop offset="0.5394" style="stop-color:#C9C9C9"/>
	<stop offset="0.6247" style="stop-color:#C5C5C5"/>
	<stop offset="0.7072" style="stop-color:#BABABA"/>
	<stop offset="0.7885" style="stop-color:#A6A6A6"/>
	<stop offset="0.869" style="stop-color:#8B8B8B"/>
	<stop offset="0.9484" style="stop-color:#686868"/>
	<stop offset="1" style="stop-color:#4D4D4D"/>
</linearGradient>
<path fill="url(#svg1.SVGID_7_)" d="M19.625,10.113C8.787,10.113,0,8.238,0,5.925v10c0,2.313,8.787,4.188,19.625,4.188  c10.839,0,19.625-1.875,19.625-4.188v-10C39.25,8.238,30.464,10.113,19.625,10.113z"/>
<linearGradient gradientTransform="matrix(1 0 0 1 -370.2002 -614.5742)" x1="370.2002" x2="409.4502" gradientUnits="userSpaceOnUse" y1="621.5938" y2="621.5938" id="svg1.SVGID_8_">
	<stop offset="0" style="stop-color:#B3B3B3"/>
	<stop offset="0.0171" style="stop-color:#B6B6B6"/>
	<stop offset="0.235" style="stop-color:#D7D7D7"/>
	<stop offset="0.4168" style="stop-color:#EBEBEB"/>
	<stop offset="0.5394" style="stop-color:#F2F2F2"/>
	<stop offset="0.6579" style="stop-color:#EEEEEE"/>
	<stop offset="0.7724" style="stop-color:#E3E3E3"/>
	<stop offset="0.8853" style="stop-color:#CFCFCF"/>
	<stop offset="0.9965" style="stop-color:#B4B4B4"/>
	<stop offset="1" style="stop-color:#B3B3B3"/>
</linearGradient>
<path fill="url(#svg1.SVGID_8_)" d="M19.625,10.113c10.839,0,19.625-1.875,19.625-4.188l-1.229-2c0,2.168-8.235,3.926-18.396,3.926  c-9.481,0-17.396-1.959-18.396-3.926L0,5.925C0,8.238,8.787,10.113,19.625,10.113z"/>
<linearGradient gradientTransform="matrix(1 0 0 1 -370.2002 -614.5742)" x1="371.4297" x2="408.2217" gradientUnits="userSpaceOnUse" y1="618.5" y2="618.5" id="svg1.SVGID_9_">
	<stop offset="0" style="stop-color:#C9C9C9"/>
	<stop offset="1" style="stop-color:#808080"/>
</linearGradient>
<ellipse rx="18.396" fill="url(#svg1.SVGID_9_)" ry="3.926" cx="19.625" cy="3.926"/>
<path fill="#FFFFFF" d="M31.291,46.792c0,0-4.313,0.578-7.249,0.694  C20.917,47.613,15,47.613,15,47.613l-2.443-10.279l-0.119-2.283l-1.231-1.842L9.789,23.024l-0.082-0.119L9.3,20.715l-1.45-1.44  L5.329,8.793c0,0,5.296,0.882,7.234,1.07s8.375,0.25,8.375,0.25l3,9.875l-0.25,1.313l1.063,2.168l2.312,9.644l-0.375,1.875  l1.627,2.193L31.291,46.792z" enable-background="new    " opacity="0.24"/>
</svg>
      </g>
    </g>
    <g text-rendering="geometricPrecision" stroke-miterlimit="1.45" shape-rendering="geometricPrecision" font-family="sans-serif" transform="matrix(1,0,0,1,-243,25)" stroke-linecap="butt">
      <text x="260.434" xml:space="preserve" y="95.7139" clip-path="url(#clipPath2)" stroke="none">Disk</text>
    </g>
    <g fill="rgb(204,255,204)" text-rendering="geometricPrecision" shape-rendering="geometricPrecision" transform="matrix(1,0,0,1,-243,25)" stroke="rgb(204,255,204)">
      <rect x="364" width="91.2" height="28" y="77" clip-path="url(#clipPath2)" stroke="none"/>
    </g>
    <g text-rendering="geometricPrecision" stroke-miterlimit="1.45" shape-rendering="geometricPrecision" transform="matrix(1,0,0,1,-243,25)" stroke-linecap="butt">
      <rect fill="none" x="364" width="91.2" height="28" y="77" clip-path="url(#clipPath2)"/>
      <text x="394.9223" xml:space="preserve" y="95.7139" clip-path="url(#clipPath2)" font-family="sans-serif" stroke="none">Index</text>
    </g>
    <g fill="rgb(204,255,204)" text-rendering="geometricPrecision" shape-rendering="geometricPrecision" transform="matrix(1,0,0,1,-243,25)" stroke="rgb(204,255,204)">
      <rect x="726" width="112.8" height="23.2" y="38.6" clip-path="url(#clipPath2)" stroke="none"/>
    </g>
    <g text-rendering="geometricPrecision" stroke-miterlimit="1.45" shape-rendering="geometricPrecision" transform="matrix(1,0,0,1,-243,25)" stroke-linecap="butt">
      <rect fill="none" x="726" width="112.8" height="23.2" y="38.6" clip-path="url(#clipPath2)"/>
      <text x="737.3912" xml:space="preserve" y="54.9139" clip-path="url(#clipPath2)" font-family="sans-serif" stroke="none">Blast file (--blast)</text>
    </g>
    <g fill="rgb(204,255,204)" text-rendering="geometricPrecision" shape-rendering="geometricPrecision" transform="matrix(1,0,0,1,-243,25)" stroke="rgb(204,255,204)">
      <rect x="726" width="112.8" height="23.2" y="79.4" clip-path="url(#clipPath2)" stroke="none"/>
    </g>
    <g text-rendering="geometricPrecision" stroke-miterlimit="1.45" shape-rendering="geometricPrecision" transform="matrix(1,0,0,1,-243,25)" stroke-linecap="butt">
      <rect fill="none" x="726" width="112.8" height="23.2" y="79.4" clip-path="url(#clipPath2)"/>
      <text x="735.7272" xml:space="preserve" y="95.7139" clip-path="url(#clipPath2)" font-family="sans-serif" stroke="none">Fasta file (--fastx)</text>
    </g>
    <g fill="rgb(204,255,204)" text-rendering="geometricPrecision" shape-rendering="geometricPrecision" transform="matrix(1,0,0,1,-243,25)" stroke="rgb(204,255,204)">
      <rect x="726" width="112.8" height="23.2" y="119.2" clip-path="url(#clipPath2)" stroke="none"/>
    </g>
    <g text-rendering="geometricPrecision" stroke-miterlimit="1.45" shape-rendering="geometricPrecision" transform="matrix(1,0,0,1,-243,25)" stroke-linecap="butt">
      <rect fill="none" x="726" width="112.8" height="23.2" y="119.2" clip-path="url(#clipPath2)"/>
      <text x="752.3824" xml:space="preserve" y="135.5139" clip-path="url(#clipPath2)" font-family="sans-serif" stroke="none">Denovo file</text>
    </g>
    <g fill="rgb(204,255,204)" text-rendering="geometricPrecision" shape-rendering="geometricPrecision" transform="matrix(1,0,0,1,-243,25)" stroke="rgb(204,255,204)">
      <rect x="726" width="112.8" height="23.2" y="159" clip-path="url(#clipPath2)" stroke="none"/>
    </g>
    <g text-rendering="geometricPrecision" stroke-miterlimit="1.45" shape-rendering="geometricPrecision" transform="matrix(1,0,0,1,-243,25)" stroke-linecap="butt">
      <rect fill="none" x="726" width="112.8" height="23.2" y="159" clip-path="url(#clipPath2)"/>
      <text x="739.067" xml:space="preserve" y="175.3139" clip-path="url(#clipPath2)" font-family="sans-serif" stroke="none">SAM file (--sam)</text>
    </g>
    <g fill="rgb(204,255,204)" text-rendering="geometricPrecision" shape-rendering="geometricPrecision" transform="matrix(1,0,0,1,-243,25)" stroke="rgb(204,255,204)">
      <rect x="726" width="112.8" height="23.2" y="199.8" clip-path="url(#clipPath2)" stroke="none"/>
    </g>
    <g text-rendering="geometricPrecision" stroke-miterlimit="1.45" shape-rendering="geometricPrecision" transform="matrix(1,0,0,1,-243,25)" stroke-linecap="butt">
      <rect fill="none" x="726" width="112.8" height="23.2" y="199.8" clip-path="url(#clipPath2)"/>
      <text x="745.3864" xml:space="preserve" y="216.1139" clip-path="url(#clipPath2)" font-family="sans-serif" stroke="none">Log file (--log)</text>
    </g>
    <g fill="rgb(144,232,232)" text-rendering="geometricPrecision" shape-rendering="geometricPrecision" transform="matrix(1,0,0,1,-243,25)" stroke="rgb(144,232,232)">
      <rect x="332.1181" width="155.0819" height="18.4" y="-9.8" clip-path="url(#clipPath2)" stroke="none"/>
    </g>
    <g text-rendering="geometricPrecision" stroke-miterlimit="1.45" shape-rendering="geometricPrecision" transform="matrix(1,0,0,1,-243,25)" stroke-linecap="butt">
      <rect fill="none" x="332.1181" width="155.0819" height="18.4" y="-9.8" clip-path="url(#clipPath2)"/>
      <text x="396.3143" xml:space="preserve" y="4.1139" clip-path="url(#clipPath2)" font-family="sans-serif" stroke="none">Input</text>
    </g>
    <g fill="rgb(144,232,232)" text-rendering="geometricPrecision" shape-rendering="geometricPrecision" transform="matrix(1,0,0,1,-243,25)" stroke="rgb(144,232,232)">
      <rect x="514.3181" width="165.3664" height="18.4" y="-9.8" clip-path="url(#clipPath2)" stroke="none"/>
    </g>
    <g text-rendering="geometricPrecision" stroke-miterlimit="1.45" shape-rendering="geometricPrecision" transform="matrix(1,0,0,1,-243,25)" stroke-linecap="butt">
      <rect fill="none" x="514.3181" width="165.3664" height="18.4" y="-9.8" clip-path="url(#clipPath2)"/>
      <text x="575.9896" xml:space="preserve" y="4.1139" clip-path="url(#clipPath2)" font-family="sans-serif" stroke="none">binaries</text>
    </g>
    <g fill="rgb(144,232,232)" text-rendering="geometricPrecision" shape-rendering="geometricPrecision" transform="matrix(1,0,0,1,-243,25)" stroke="rgb(144,232,232)">
      <rect x="702" width="136.8" height="18.4" y="-9.8" clip-path="url(#clipPath2)" stroke="none"/>
    </g>
    <g text-rendering="geometricPrecision" stroke-miterlimit="1.45" shape-rendering="geometricPrecision" transform="matrix(1,0,0,1,-243,25)" stroke-linecap="butt">
      <rect fill="none" x="702" width="136.8" height="18.4" y="-9.8" clip-path="url(#clipPath2)"/>
      <text x="752.3883" xml:space="preserve" y="4.1139" clip-path="url(#clipPath2)" font-family="sans-serif" stroke="none">Output</text>
    </g>
    <g fill="rgb(204,255,204)" text-rendering="geometricPrecision" shape-rendering="geometricPrecision" transform="matrix(1,0,0,1,-243,25)" stroke="rgb(204,255,204)">
      <rect x="503.2148" width="195.5705" height="28" y="253" clip-path="url(#clipPath2)" stroke="none"/>
    </g>
    <g text-rendering="geometricPrecision" stroke-miterlimit="1.45" shape-rendering="geometricPrecision" transform="matrix(1,0,0,1,-243,25)" stroke-linecap="butt">
      <rect fill="none" x="503.2148" width="195.5705" height="28" y="253" clip-path="url(#clipPath2)"/>
      <text x="528.6367" xml:space="preserve" y="271.7139" clip-path="url(#clipPath2)" font-family="sans-serif" stroke="none">Key-Value DB (alignments)</text>
      <path fill="none" d="M462.9673 125.0394 L550.6 103.4288" clip-path="url(#clipPath2)"/>
      <path d="M455.2 126.9549 L468.0481 128.9363 L463.9382 124.8 L465.6538 119.2271 Z" clip-path="url(#clipPath2)" stroke="none"/>
      <path fill="none" d="M550.6 78.5712 L462.9673 56.9606" clip-path="url(#clipPath2)"/>
      <path d="M455.2 55.0451 L465.6538 62.7729 L463.9382 57.2 L468.0481 53.0638 Z" clip-path="url(#clipPath2)" stroke="none"/>
      <path fill="none" d="M381.3553 57.8 L334.0309 81.2572" clip-path="url(#clipPath2)"/>
      <path fill="none" d="M334.0198 100.7373 L381.3553 124.2" clip-path="url(#clipPath2)"/>
      <path fill="none" d="M334.0431 91 L364 91" clip-path="url(#clipPath2)"/>
      <path fill="none" stroke-dasharray="12,4" d="M409.6 57.8 L409.6 77" stroke-width="2" clip-path="url(#clipPath2)"/>
      <path fill="none" d="M463.2 91 L550.6 91" clip-path="url(#clipPath2)"/>
      <path d="M455.2 91 L467.2 96 L464.2 91 L467.2 86 Z" clip-path="url(#clipPath2)" stroke="none"/>
      <path fill="none" d="M651.4 91 L685.8751 91 L685.8751 50.2 L718 50.2" clip-path="url(#clipPath2)"/>
      <path d="M726 50.2 L714 45.2 L717 50.2 L714 55.2 Z" clip-path="url(#clipPath2)" stroke="none"/>
      <path fill="none" d="M651.4 91 L718 91" clip-path="url(#clipPath2)"/>
      <path d="M726 91 L714 86 L717 91 L714 96 Z" clip-path="url(#clipPath2)" stroke="none"/>
      <path fill="none" d="M651.4 91 L685.8751 91 L685.8751 130.8 L718 130.8" clip-path="url(#clipPath2)"/>
      <path d="M726 130.8 L714 125.8 L717 130.8 L714 135.8 Z" clip-path="url(#clipPath2)" stroke="none"/>
      <path fill="none" d="M651.4 91 L685.8751 91 L685.8751 170.6 L718 170.6" clip-path="url(#clipPath2)"/>
      <path d="M726 170.6 L714 165.6 L717 170.6 L714 175.6 Z" clip-path="url(#clipPath2)" stroke="none"/>
      <path fill="none" d="M651.4 91 L685.8751 91 L685.8751 211.4 L718 211.4" clip-path="url(#clipPath2)"/>
      <path d="M726 211.4 L714 206.4 L717 211.4 L714 216.4 Z" clip-path="url(#clipPath2)" stroke="none"/>
      <path fill="none" d="M314.375 114.8477 L314.375 267 L503.2148 267" clip-path="url(#clipPath2)"/>
      <path fill="none" d="M601 105 L601 245" clip-path="url(#clipPath2)"/>
      <path d="M601 253 L606 241 L601 244 L596 241 Z" clip-path="url(#clipPath2)" stroke="none"/>
    </g>
  </g>
</svg>
