<?xml version="1.0" encoding="UTF-8"?><svg xmlns="http://www.w3.org/2000/svg" xmlns:xlink="http://www.w3.org/1999/xlink" fill-opacity="1" color-rendering="auto" color-interpolation="auto" text-rendering="auto" stroke="black" stroke-linecap="square" width="650" stroke-miterlimit="10" shape-rendering="auto" stroke-opacity="1" fill="black" stroke-dasharray="none" font-weight="normal" stroke-width="1" height="278" font-family="'Dialog'" font-style="normal" stroke-linejoin="miter" font-size="12px" stroke-dashoffset="0" image-rendering="auto">
  <!--Generated by ySVG 2.5-->
  <defs id="genericDefs"/>
  <g>
    <g fill="white" text-rendering="geometricPrecision" shape-rendering="geometricPrecision" transform="translate(-62,149)" stroke="white">
      <rect x="62" width="650" height="278" y="-149" clip-path="url(#clipPath2)" stroke="none"/>
    </g>
    <g fill="rgb(204,255,204)" text-rendering="geometricPrecision" shape-rendering="geometricPrecision" transform="matrix(1,0,0,1,-62,149)" stroke="rgb(204,255,204)">
      <rect x="521.2597" width="81.4686" height="20.3699" y="92.7413" clip-path="url(#clipPath2)" stroke="none"/>
    </g>
    <g text-rendering="geometricPrecision" stroke-miterlimit="1.45" shape-rendering="geometricPrecision" transform="matrix(1,0,0,1,-62,149)" stroke-linecap="butt">
      <rect fill="none" x="521.2597" width="81.4686" height="20.3699" y="92.7413" clip-path="url(#clipPath2)"/>
      <text x="531.3113" xml:space="preserve" y="107.6401" clip-path="url(#clipPath2)" font-family="sans-serif" stroke="none">writeQueue</text>
    </g>
    <g fill="rgb(204,255,204)" text-rendering="geometricPrecision" shape-rendering="geometricPrecision" transform="matrix(1,0,0,1,-62,149)" stroke="rgb(204,255,204)">
      <rect x="327.7685" width="81.4686" height="20.3699" y="92.7413" clip-path="url(#clipPath2)" stroke="none"/>
    </g>
    <g text-rendering="geometricPrecision" stroke-miterlimit="1.45" shape-rendering="geometricPrecision" transform="matrix(1,0,0,1,-62,149)" stroke-linecap="butt">
      <rect fill="none" x="327.7685" width="81.4686" height="20.3699" y="92.7413" clip-path="url(#clipPath2)"/>
      <text x="338.4794" xml:space="preserve" y="107.6401" clip-path="url(#clipPath2)" font-family="sans-serif" stroke="none">readQueue</text>
    </g>
    <g fill="rgb(204,255,204)" text-rendering="geometricPrecision" shape-rendering="geometricPrecision" transform="matrix(1,0,0,1,-62,149)" stroke="rgb(204,255,204)">
      <rect x="77.5979" width="92.1699" height="20.3699" y="-5.3938" clip-path="url(#clipPath2)" stroke="none"/>
    </g>
    <g text-rendering="geometricPrecision" stroke-miterlimit="1.45" shape-rendering="geometricPrecision" transform="matrix(1,0,0,1,-62,149)" stroke-linecap="butt">
      <rect fill="none" x="77.5979" width="92.1699" height="20.3699" y="-5.3938" clip-path="url(#clipPath2)"/>
      <text x="81.6741" xml:space="preserve" y="9.505" clip-path="url(#clipPath2)" font-family="sans-serif" stroke="none">Reads file FWD</text>
    </g>
    <g fill="rgb(204,255,204)" text-rendering="geometricPrecision" shape-rendering="geometricPrecision" transform="matrix(1,0,0,1,-62,149)" stroke="rgb(204,255,204)">
      <rect x="623.5868" width="63.5944" height="21.4487" y="10.2162" clip-path="url(#clipPath2)" stroke="none"/>
    </g>
    <g text-rendering="geometricPrecision" stroke-miterlimit="1.45" shape-rendering="geometricPrecision" transform="matrix(1,0,0,1,-62,149)" stroke-linecap="butt">
      <rect fill="none" x="623.5868" width="63.5944" height="21.4487" y="10.2162" clip-path="url(#clipPath2)"/>
      <text x="639.3879" xml:space="preserve" y="25.6544" clip-path="url(#clipPath2)" font-family="sans-serif" stroke="none">Writer</text>
    </g>
    <g fill="rgb(204,255,204)" text-rendering="geometricPrecision" shape-rendering="geometricPrecision" transform="matrix(1,0,0,1,-62,149)" stroke="rgb(204,255,204)">
      <rect x="430.2925" width="81.4686" height="20.3699" y="-19.4294" clip-path="url(#clipPath2)" stroke="none"/>
    </g>
    <g text-rendering="geometricPrecision" stroke-miterlimit="1.45" shape-rendering="geometricPrecision" transform="matrix(1,0,0,1,-62,149)" stroke-linecap="butt">
      <rect fill="none" x="430.2925" width="81.4686" height="20.3699" y="-19.4294" clip-path="url(#clipPath2)"/>
      <text x="444.018" xml:space="preserve" y="-4.5305" clip-path="url(#clipPath2)" font-family="sans-serif" stroke="none">Processor</text>
    </g>
    <g fill="rgb(204,255,204)" text-rendering="geometricPrecision" shape-rendering="geometricPrecision" transform="matrix(1,0,0,1,-62,149)" stroke="rgb(204,255,204)">
      <rect x="191.4278" width="100.8" height="24.685" y="8.5981" clip-path="url(#clipPath2)" stroke="none"/>
    </g>
    <g text-rendering="geometricPrecision" stroke-miterlimit="1.45" shape-rendering="geometricPrecision" transform="matrix(1,0,0,1,-62,149)" stroke-linecap="butt">
      <rect fill="none" x="191.4278" width="100.8" height="24.685" y="8.5981" clip-path="url(#clipPath2)"/>
      <text x="208.1422" xml:space="preserve" y="25.6544" clip-path="url(#clipPath2)" font-family="sans-serif" stroke="none">ReadControl</text>
    </g>
    <g fill="rgb(204,255,204)" text-rendering="geometricPrecision" shape-rendering="geometricPrecision" transform="matrix(1,0,0,1,-62,149)" stroke="rgb(204,255,204)">
      <rect x="557.8512" width="49.71" height="14.8467" y="-71.0261" clip-path="url(#clipPath2)" stroke="none"/>
    </g>
    <g text-rendering="geometricPrecision" stroke-miterlimit="1.45" shape-rendering="geometricPrecision" transform="matrix(1,0,0,1,-62,149)" stroke-linecap="butt">
      <rect fill="none" x="557.8512" width="49.71" height="14.8467" y="-71.0261" clip-path="url(#clipPath2)"/>
      <text x="570.0323" xml:space="preserve" y="-58.8889" clip-path="url(#clipPath2)" font-family="sans-serif" stroke="none">kvdb</text>
    </g>
    <g fill="rgb(204,255,204)" text-rendering="geometricPrecision" shape-rendering="geometricPrecision" transform="matrix(1,0,0,1,-62,149)" stroke="rgb(204,255,204)">
      <rect x="443.4102" width="55.2332" height="14.8467" y="-71.0261" clip-path="url(#clipPath2)" stroke="none"/>
    </g>
    <g text-rendering="geometricPrecision" stroke-miterlimit="1.45" shape-rendering="geometricPrecision" transform="matrix(1,0,0,1,-62,149)" stroke-linecap="butt">
      <rect fill="none" x="443.4102" width="55.2332" height="14.8467" y="-71.0261" clip-path="url(#clipPath2)"/>
      <text x="456.3491" xml:space="preserve" y="-58.8889" clip-path="url(#clipPath2)" font-family="sans-serif" stroke="none">Index</text>
    </g>
    <g fill="rgb(204,255,255)" text-rendering="geometricPrecision" shape-rendering="geometricPrecision" transform="matrix(1,0,0,1,-62,149)" stroke="rgb(204,255,255)">
      <rect x="77.5979" y="-133.8893" clip-path="url(#clipPath2)" width="618.5204" rx="4" ry="4" height="20.3699" stroke="none"/>
    </g>
    <g text-rendering="geometricPrecision" stroke-miterlimit="1.45" shape-rendering="geometricPrecision" transform="matrix(1,0,0,1,-62,149)" stroke-linecap="butt">
      <rect x="77.5979" y="-133.8893" clip-path="url(#clipPath2)" fill="none" width="618.5204" rx="4" ry="4" height="20.3699"/>
      <text x="307.8093" xml:space="preserve" y="-118.9904" clip-path="url(#clipPath2)" font-family="sans-serif" stroke="none">alignment processing pipeline</text>
    </g>
    <g fill="rgb(204,255,204)" text-rendering="geometricPrecision" shape-rendering="geometricPrecision" transform="matrix(1,0,0,1,-62,149)" stroke="rgb(204,255,204)">
      <rect x="77.5979" width="92.1699" height="20.3699" y="24.4477" clip-path="url(#clipPath2)" stroke="none"/>
    </g>
    <g text-rendering="geometricPrecision" stroke-miterlimit="1.45" shape-rendering="geometricPrecision" transform="matrix(1,0,0,1,-62,149)" stroke-linecap="butt">
      <rect fill="none" x="77.5979" width="92.1699" height="20.3699" y="24.4477" clip-path="url(#clipPath2)"/>
      <text x="82.9983" xml:space="preserve" y="39.3466" clip-path="url(#clipPath2)" font-family="sans-serif" stroke="none">Reads file REV</text>
    </g>
    <g fill="rgb(204,255,204)" text-rendering="geometricPrecision" shape-rendering="geometricPrecision" transform="matrix(1,0,0,1,-62,149)" stroke="rgb(204,255,204)">
      <rect x="430.2925" width="81.4686" height="20.3699" y="10.7556" clip-path="url(#clipPath2)" stroke="none"/>
    </g>
    <g text-rendering="geometricPrecision" stroke-miterlimit="1.45" shape-rendering="geometricPrecision" transform="matrix(1,0,0,1,-62,149)" stroke-linecap="butt">
      <rect fill="none" x="430.2925" width="81.4686" height="20.3699" y="10.7556" clip-path="url(#clipPath2)"/>
      <text x="466.0258" xml:space="preserve" y="25.6544" clip-path="url(#clipPath2)" font-family="sans-serif" stroke="none">...</text>
    </g>
    <g fill="rgb(204,255,204)" text-rendering="geometricPrecision" shape-rendering="geometricPrecision" transform="matrix(1,0,0,1,-62,149)" stroke="rgb(204,255,204)">
      <rect x="430.2925" width="81.4686" height="20.3699" y="41.5241" clip-path="url(#clipPath2)" stroke="none"/>
    </g>
    <g text-rendering="geometricPrecision" stroke-miterlimit="1.45" shape-rendering="geometricPrecision" transform="matrix(1,0,0,1,-62,149)" stroke-linecap="butt">
      <rect fill="none" x="430.2925" width="81.4686" height="20.3699" y="41.5241" clip-path="url(#clipPath2)"/>
      <text x="444.018" xml:space="preserve" y="56.4229" clip-path="url(#clipPath2)" font-family="sans-serif" stroke="none">Processor</text>
    </g>
    <g fill="rgb(204,255,204)" text-rendering="geometricPrecision" shape-rendering="geometricPrecision" transform="matrix(1,0,0,1,-62,149)" stroke="rgb(204,255,204)">
      <rect x="191.4278" width="100.8" height="24.685" y="-37.0488" clip-path="url(#clipPath2)" stroke="none"/>
    </g>
    <g text-rendering="geometricPrecision" stroke-miterlimit="1.45" shape-rendering="geometricPrecision" transform="matrix(1,0,0,1,-62,149)" stroke-linecap="butt">
      <rect fill="none" x="191.4278" width="100.8" height="24.685" y="-37.0488" clip-path="url(#clipPath2)"/>
      <text x="206.8209" xml:space="preserve" y="-19.9925" clip-path="url(#clipPath2)" font-family="sans-serif" stroke="none">Reader FWD</text>
    </g>
    <g fill="rgb(204,255,204)" text-rendering="geometricPrecision" shape-rendering="geometricPrecision" transform="matrix(1,0,0,1,-62,149)" stroke="rgb(204,255,204)">
      <rect x="191.4278" width="100.8" height="24.685" y="54.245" clip-path="url(#clipPath2)" stroke="none"/>
    </g>
    <g text-rendering="geometricPrecision" stroke-miterlimit="1.45" shape-rendering="geometricPrecision" transform="matrix(1,0,0,1,-62,149)" stroke-linecap="butt">
      <rect fill="none" x="191.4278" width="100.8" height="24.685" y="54.245" clip-path="url(#clipPath2)"/>
      <text x="208.1452" xml:space="preserve" y="71.3014" clip-path="url(#clipPath2)" font-family="sans-serif" stroke="none">Reader REV</text>
    </g>
    <g fill="rgb(204,255,255)" text-rendering="geometricPrecision" shape-rendering="geometricPrecision" transform="matrix(1,0,0,1,-62,149)" stroke="rgb(204,255,255)">
      <rect x="430.2925" y="72.2926" clip-path="url(#clipPath2)" width="81.4686" rx="4" ry="4" height="14.8467" stroke="none"/>
    </g>
    <g text-rendering="geometricPrecision" stroke-miterlimit="1.45" shape-rendering="geometricPrecision" transform="matrix(1,0,0,1,-62,149)" stroke-linecap="butt">
      <rect x="430.2925" y="72.2926" clip-path="url(#clipPath2)" fill="none" width="81.4686" rx="4" ry="4" height="14.8467"/>
      <text x="454.0141" xml:space="preserve" y="84.4298" clip-path="url(#clipPath2)" font-family="sans-serif" stroke="none">thread</text>
    </g>
    <g fill="rgb(204,255,255)" text-rendering="geometricPrecision" shape-rendering="geometricPrecision" transform="matrix(1,0,0,1,-62,149)" stroke="rgb(204,255,255)">
      <rect x="301.6726" y="13.5172" clip-path="url(#clipPath2)" width="56.2373" rx="4" ry="4" height="14.8467" stroke="none"/>
    </g>
    <g text-rendering="geometricPrecision" stroke-miterlimit="1.45" shape-rendering="geometricPrecision" transform="matrix(1,0,0,1,-62,149)" stroke-linecap="butt">
      <rect x="301.6726" y="13.5172" clip-path="url(#clipPath2)" fill="none" width="56.2373" rx="4" ry="4" height="14.8467"/>
      <text x="312.7785" xml:space="preserve" y="25.6544" clip-path="url(#clipPath2)" font-family="sans-serif" stroke="none">thread</text>
    </g>
    <g fill="rgb(204,255,255)" text-rendering="geometricPrecision" shape-rendering="geometricPrecision" transform="matrix(1,0,0,1,-62,149)" stroke="rgb(204,255,255)">
      <rect x="614.6497" y="41.5241" clip-path="url(#clipPath2)" width="81.4686" rx="4" ry="4" height="14.8467" stroke="none"/>
    </g>
    <g text-rendering="geometricPrecision" stroke-miterlimit="1.45" shape-rendering="geometricPrecision" transform="matrix(1,0,0,1,-62,149)" stroke-linecap="butt">
      <rect x="614.6497" y="41.5241" clip-path="url(#clipPath2)" fill="none" width="81.4686" rx="4" ry="4" height="14.8467"/>
      <text x="638.3713" xml:space="preserve" y="53.6613" clip-path="url(#clipPath2)" font-family="sans-serif" stroke="none">thread</text>
    </g>
    <g fill="rgb(204,255,255)" text-rendering="geometricPrecision" shape-rendering="geometricPrecision" transform="matrix(1,0,0,1,-62,149)" stroke="rgb(204,255,255)">
      <rect x="397.8434" y="-93.4643" clip-path="url(#clipPath2)" width="100.8" rx="4" ry="4" height="14.8467" stroke="none"/>
    </g>
    <g text-rendering="geometricPrecision" stroke-miterlimit="1.45" shape-rendering="geometricPrecision" transform="matrix(1,0,0,1,-62,149)" stroke-linecap="butt">
      <rect x="397.8434" y="-93.4643" clip-path="url(#clipPath2)" fill="none" width="100.8" rx="4" ry="4" height="14.8467"/>
      <text x="419.8958" xml:space="preserve" y="-81.3271" clip-path="url(#clipPath2)" font-family="sans-serif" stroke="none">references</text>
    </g>
    <g fill="rgb(204,255,255)" text-rendering="geometricPrecision" shape-rendering="geometricPrecision" transform="matrix(1,0,0,1,-62,149)" stroke="rgb(204,255,255)">
      <rect x="521.2597" y="-93.4643" clip-path="url(#clipPath2)" width="122.893" rx="4" ry="4" height="14.8467" stroke="none"/>
    </g>
    <g text-rendering="geometricPrecision" stroke-miterlimit="1.45" shape-rendering="geometricPrecision" transform="matrix(1,0,0,1,-62,149)" stroke-linecap="butt">
      <rect x="521.2597" y="-93.4643" clip-path="url(#clipPath2)" fill="none" width="122.893" rx="4" ry="4" height="14.8467"/>
      <text x="537.3517" xml:space="preserve" y="-81.3271" clip-path="url(#clipPath2)" font-family="sans-serif" stroke="none">alignment results</text>
    </g>
    <g text-rendering="geometricPrecision" shape-rendering="geometricPrecision" transform="matrix(1,0,0,0.4574,14.9999,106.1518)">
      <g clip-path="url(#clipPath3)">
        <svg xml:space="preserve" opacity="1" writing-mode="lr-tb" stop-color="rgb(0, 0, 0)" shape-rendering="auto" glyph-orientation-horizontal="0deg" color-profile="auto" lighting-color="rgb(255, 255, 255)" color="rgb(0, 0, 0)" font-weight="400" alignment-baseline="auto" font-style="normal" version="1.1" color-interpolation-filters="linearrgb" text-anchor="start" stroke-linecap="butt" color-interpolation="srgb" font-variant="normal" word-spacing="normal" fill-opacity="1" text-rendering="auto" clip-path="none" text-decoration="none" letter-spacing="normal" viewBox="-0.875 -0.887 41 48" glyph-orientation-vertical="auto" display="inline" font-size-adjust="none" overflow="hidden" fill="rgb(0, 0, 0)" font-stretch="normal" stroke-dasharray="none" stroke-miterlimit="4" stop-opacity="1" color-rendering="auto" font-size="12" pointer-events="visiblepainted" mask="none" direction="ltr" baseline-shift="baseline" enable-background="new -0.875 -0.887 41 48" fill-rule="nonzero" image-rendering="auto" stroke-dashoffset="0" width="41px" marker-end="none" clip="auto" cursor="auto" stroke="none" filter="none" visibility="visible" kerning="auto" stroke-width="1" font-family="&quot;Arial&quot;,&quot;Helvetica&quot;,sans-serif" flood-opacity="1" clip-rule="nonzero" src="none" height="48px" unicode-bidi="normal" stroke-linejoin="miter" stroke-opacity="1" flood-color="rgb(0, 0, 0)" dominant-baseline="auto" marker-start="none" x="0px" marker-mid="none" y="0px">
<defs>
<clipPath clipPathUnits="userSpaceOnUse" id="clipPath1"><path d="M0 0 L650 0 L650 278 L0 278 L0 0 Z"/></clipPath><clipPath clipPathUnits="userSpaceOnUse" id="clipPath2"><path d="M62 -149 L712 -149 L712 129 L62 129 L62 -149 Z"/></clipPath><clipPath clipPathUnits="userSpaceOnUse" id="clipPath3"><path d="M-14.9999 -232.0535 L635.0001 -232.0535 L635.0001 375.6696 L-14.9999 375.6696 L-14.9999 -232.0535 Z"/></clipPath><clipPath clipPathUnits="userSpaceOnUse" id="clipPath4"><path d="M-574.9631 -162.352 L75.0369 -162.352 L75.0369 445.3711 L-574.9631 445.3711 L-574.9631 -162.352 Z"/></clipPath></defs>
<linearGradient gradientTransform="matrix(1 0 0 -1 -642.8008 -939.4756)" x1="642.8008" x2="682.0508" gradientUnits="userSpaceOnUse" y1="-979.1445" y2="-979.1445" id="svg1.SVGID_1_">
	<stop offset="0" style="stop-color:#3C89C9"/>
	<stop offset="0.1482" style="stop-color:#60A6DD"/>
	<stop offset="0.3113" style="stop-color:#81C1F0"/>
	<stop offset="0.4476" style="stop-color:#95D1FB"/>
	<stop offset="0.5394" style="stop-color:#9CD7FF"/>
	<stop offset="0.636" style="stop-color:#98D4FD"/>
	<stop offset="0.7293" style="stop-color:#8DCAF6"/>
	<stop offset="0.8214" style="stop-color:#79BBEB"/>
	<stop offset="0.912" style="stop-color:#5EA5DC"/>
	<stop offset="1" style="stop-color:#3C89C9"/>
</linearGradient>
<path fill="url(#svg1.SVGID_1_)" d="M19.625,36.763C8.787,36.763,0,34.888,0,32.575v10c0,2.313,8.787,4.188,19.625,4.188  c10.839,0,19.625-1.875,19.625-4.188v-10C39.25,34.888,30.464,36.763,19.625,36.763z"/>
<linearGradient gradientTransform="matrix(1 0 0 -1 -642.8008 -939.4756)" x1="642.8008" x2="682.0508" gradientUnits="userSpaceOnUse" y1="-973.1445" y2="-973.1445" id="svg1.SVGID_2_">
	<stop offset="0" style="stop-color:#9CD7FF"/>
	<stop offset="0.0039" style="stop-color:#9DD7FF"/>
	<stop offset="0.2273" style="stop-color:#BDE5FF"/>
	<stop offset="0.4138" style="stop-color:#D1EEFF"/>
	<stop offset="0.5394" style="stop-color:#D9F1FF"/>
	<stop offset="0.6155" style="stop-color:#D5EFFE"/>
	<stop offset="0.6891" style="stop-color:#C9E7FA"/>
	<stop offset="0.7617" style="stop-color:#B6DAF3"/>
	<stop offset="0.8337" style="stop-color:#9AC8EA"/>
	<stop offset="0.9052" style="stop-color:#77B0DD"/>
	<stop offset="0.9754" style="stop-color:#4D94CF"/>
	<stop offset="1" style="stop-color:#3C89C9"/>
</linearGradient>
<path fill="url(#svg1.SVGID_2_)" d="M19.625,36.763c10.839,0,19.625-1.875,19.625-4.188l-1.229-2c0,2.168-8.235,3.927-18.396,3.927  c-9.481,0-17.396-1.959-18.396-3.927l-1.229,2C0,34.888,8.787,36.763,19.625,36.763z"/>
<path fill="#3C89C9" d="M19.625,26.468c10.16,0,19.625,2.775,19.625,2.775c-0.375,2.721-5.367,5.438-19.554,5.438  c-12.125,0-18.467-2.484-19.541-4.918C-0.127,29.125,9.465,26.468,19.625,26.468z"/>
<linearGradient gradientTransform="matrix(1 0 0 -1 -642.8008 -939.4756)" x1="642.8008" x2="682.0508" gradientUnits="userSpaceOnUse" y1="-965.6948" y2="-965.6948" id="svg1.SVGID_3_">
	<stop offset="0" style="stop-color:#3C89C9"/>
	<stop offset="0.1482" style="stop-color:#60A6DD"/>
	<stop offset="0.3113" style="stop-color:#81C1F0"/>
	<stop offset="0.4476" style="stop-color:#95D1FB"/>
	<stop offset="0.5394" style="stop-color:#9CD7FF"/>
	<stop offset="0.636" style="stop-color:#98D4FD"/>
	<stop offset="0.7293" style="stop-color:#8DCAF6"/>
	<stop offset="0.8214" style="stop-color:#79BBEB"/>
	<stop offset="0.912" style="stop-color:#5EA5DC"/>
	<stop offset="1" style="stop-color:#3C89C9"/>
</linearGradient>
<path fill="url(#svg1.SVGID_3_)" d="M19.625,23.313C8.787,23.313,0,21.438,0,19.125v10c0,2.313,8.787,4.188,19.625,4.188  c10.839,0,19.625-1.875,19.625-4.188v-10C39.25,21.438,30.464,23.313,19.625,23.313z"/>
<linearGradient gradientTransform="matrix(1 0 0 -1 -642.8008 -939.4756)" x1="642.8008" x2="682.0508" gradientUnits="userSpaceOnUse" y1="-959.6948" y2="-959.6948" id="svg1.SVGID_4_">
	<stop offset="0" style="stop-color:#9CD7FF"/>
	<stop offset="0.0039" style="stop-color:#9DD7FF"/>
	<stop offset="0.2273" style="stop-color:#BDE5FF"/>
	<stop offset="0.4138" style="stop-color:#D1EEFF"/>
	<stop offset="0.5394" style="stop-color:#D9F1FF"/>
	<stop offset="0.6155" style="stop-color:#D5EFFE"/>
	<stop offset="0.6891" style="stop-color:#C9E7FA"/>
	<stop offset="0.7617" style="stop-color:#B6DAF3"/>
	<stop offset="0.8337" style="stop-color:#9AC8EA"/>
	<stop offset="0.9052" style="stop-color:#77B0DD"/>
	<stop offset="0.9754" style="stop-color:#4D94CF"/>
	<stop offset="1" style="stop-color:#3C89C9"/>
</linearGradient>
<path fill="url(#svg1.SVGID_4_)" d="M19.625,23.313c10.839,0,19.625-1.875,19.625-4.188l-1.229-2c0,2.168-8.235,3.926-18.396,3.926  c-9.481,0-17.396-1.959-18.396-3.926l-1.229,2C0,21.438,8.787,23.313,19.625,23.313z"/>
<path fill="#3C89C9" d="M19.476,13.019c10.161,0,19.625,2.775,19.625,2.775c-0.375,2.721-5.367,5.438-19.555,5.438  c-12.125,0-18.467-2.485-19.541-4.918C-0.277,15.674,9.316,13.019,19.476,13.019z"/>
<linearGradient gradientTransform="matrix(1 0 0 -1 -642.8008 -939.4756)" x1="642.8008" x2="682.0508" gradientUnits="userSpaceOnUse" y1="-952.4946" y2="-952.4946" id="svg1.SVGID_5_">
	<stop offset="0" style="stop-color:#3C89C9"/>
	<stop offset="0.1482" style="stop-color:#60A6DD"/>
	<stop offset="0.3113" style="stop-color:#81C1F0"/>
	<stop offset="0.4476" style="stop-color:#95D1FB"/>
	<stop offset="0.5394" style="stop-color:#9CD7FF"/>
	<stop offset="0.636" style="stop-color:#98D4FD"/>
	<stop offset="0.7293" style="stop-color:#8DCAF6"/>
	<stop offset="0.8214" style="stop-color:#79BBEB"/>
	<stop offset="0.912" style="stop-color:#5EA5DC"/>
	<stop offset="1" style="stop-color:#3C89C9"/>
</linearGradient>
<path fill="url(#svg1.SVGID_5_)" d="M19.625,10.113C8.787,10.113,0,8.238,0,5.925v10c0,2.313,8.787,4.188,19.625,4.188  c10.839,0,19.625-1.875,19.625-4.188v-10C39.25,8.238,30.464,10.113,19.625,10.113z"/>
<linearGradient gradientTransform="matrix(1 0 0 -1 -642.8008 -939.4756)" x1="642.8008" x2="682.0508" gradientUnits="userSpaceOnUse" y1="-946.4946" y2="-946.4946" id="svg1.SVGID_6_">
	<stop offset="0" style="stop-color:#9CD7FF"/>
	<stop offset="0.0039" style="stop-color:#9DD7FF"/>
	<stop offset="0.2273" style="stop-color:#BDE5FF"/>
	<stop offset="0.4138" style="stop-color:#D1EEFF"/>
	<stop offset="0.5394" style="stop-color:#D9F1FF"/>
	<stop offset="0.6155" style="stop-color:#D5EFFE"/>
	<stop offset="0.6891" style="stop-color:#C9E7FA"/>
	<stop offset="0.7617" style="stop-color:#B6DAF3"/>
	<stop offset="0.8337" style="stop-color:#9AC8EA"/>
	<stop offset="0.9052" style="stop-color:#77B0DD"/>
	<stop offset="0.9754" style="stop-color:#4D94CF"/>
	<stop offset="1" style="stop-color:#3C89C9"/>
</linearGradient>
<path fill="url(#svg1.SVGID_6_)" d="M19.625,10.113c10.839,0,19.625-1.875,19.625-4.188l-1.229-2c0,2.168-8.235,3.926-18.396,3.926  c-9.481,0-17.396-1.959-18.396-3.926L0,5.925C0,8.238,8.787,10.113,19.625,10.113z"/>
<linearGradient gradientTransform="matrix(1 0 0 -1 -642.8008 -939.4756)" x1="644.0293" x2="680.8223" gradientUnits="userSpaceOnUse" y1="-943.4014" y2="-943.4014" id="svg1.SVGID_7_">
	<stop offset="0" style="stop-color:#9CD7FF"/>
	<stop offset="1" style="stop-color:#3C89C9"/>
</linearGradient>
<ellipse rx="18.396" fill="url(#svg1.SVGID_7_)" ry="3.926" cx="19.625" cy="3.926"/>
<path fill="#FFFFFF" d="M31.04,45.982c0,0-4.354,0.664-7.29,0.781  c-3.125,0.125-8.952,0-8.952,0l-2.384-10.292l0.044-2.108l-1.251-1.154L9.789,23.024l-0.082-0.119L9.5,20.529l-1.65-1.254  L5.329,8.793c0,0,4.213,0.903,7.234,1.07s8.375,0.25,8.375,0.25l3,9.875l-0.25,1.313l1.063,2.168l2.312,9.645l-0.521,1.416  l1.46,1.834L31.04,45.982z" enable-background="new    " opacity="0.24"/>
</svg>
      </g>
    </g>
    <g text-rendering="geometricPrecision" stroke-miterlimit="1.45" shape-rendering="geometricPrecision" font-family="sans-serif" transform="matrix(1,0,0,1,-62,149)" stroke-linecap="butt">
      <text x="87.7929" xml:space="preserve" y="-51.0792" clip-path="url(#clipPath2)" stroke="none">Disk</text>
    </g>
    <g text-rendering="geometricPrecision" shape-rendering="geometricPrecision" transform="matrix(1,0,0,0.4574,574.9631,74.2672)">
      <g clip-path="url(#clipPath4)">
        <svg xml:space="preserve" opacity="1" writing-mode="lr-tb" stop-color="rgb(0, 0, 0)" shape-rendering="auto" glyph-orientation-horizontal="0deg" color-profile="auto" lighting-color="rgb(255, 255, 255)" color="rgb(0, 0, 0)" font-weight="400" alignment-baseline="auto" font-style="normal" version="1.1" color-interpolation-filters="linearrgb" text-anchor="start" stroke-linecap="butt" color-interpolation="srgb" font-variant="normal" word-spacing="normal" fill-opacity="1" text-rendering="auto" clip-path="none" text-decoration="none" letter-spacing="normal" viewBox="-0.875 -0.887 41 48" glyph-orientation-vertical="auto" display="inline" font-size-adjust="none" overflow="hidden" fill="rgb(0, 0, 0)" font-stretch="normal" stroke-dasharray="none" stroke-miterlimit="4" stop-opacity="1" color-rendering="auto" font-size="12" pointer-events="visiblepainted" mask="none" direction="ltr" baseline-shift="baseline" enable-background="new -0.875 -0.887 41 48" fill-rule="nonzero" image-rendering="auto" stroke-dashoffset="0" width="41px" marker-end="none" clip="auto" cursor="auto" stroke="none" filter="none" visibility="visible" kerning="auto" stroke-width="1" font-family="&quot;Arial&quot;,&quot;Helvetica&quot;,sans-serif" flood-opacity="1" clip-rule="nonzero" src="none" height="48px" unicode-bidi="normal" stroke-linejoin="miter" stroke-opacity="1" flood-color="rgb(0, 0, 0)" dominant-baseline="auto" marker-start="none" x="0px" marker-mid="none" y="0px">
<defs>
</defs>
<linearGradient gradientTransform="matrix(1 0 0 -1 -642.8008 -939.4756)" x1="642.8008" x2="682.0508" gradientUnits="userSpaceOnUse" y1="-979.1445" y2="-979.1445" id="svg2.SVGID_1_">
	<stop offset="0" style="stop-color:#3C89C9"/>
	<stop offset="0.1482" style="stop-color:#60A6DD"/>
	<stop offset="0.3113" style="stop-color:#81C1F0"/>
	<stop offset="0.4476" style="stop-color:#95D1FB"/>
	<stop offset="0.5394" style="stop-color:#9CD7FF"/>
	<stop offset="0.636" style="stop-color:#98D4FD"/>
	<stop offset="0.7293" style="stop-color:#8DCAF6"/>
	<stop offset="0.8214" style="stop-color:#79BBEB"/>
	<stop offset="0.912" style="stop-color:#5EA5DC"/>
	<stop offset="1" style="stop-color:#3C89C9"/>
</linearGradient>
<path fill="url(#svg2.SVGID_1_)" d="M19.625,36.763C8.787,36.763,0,34.888,0,32.575v10c0,2.313,8.787,4.188,19.625,4.188  c10.839,0,19.625-1.875,19.625-4.188v-10C39.25,34.888,30.464,36.763,19.625,36.763z"/>
<linearGradient gradientTransform="matrix(1 0 0 -1 -642.8008 -939.4756)" x1="642.8008" x2="682.0508" gradientUnits="userSpaceOnUse" y1="-973.1445" y2="-973.1445" id="svg2.SVGID_2_">
	<stop offset="0" style="stop-color:#9CD7FF"/>
	<stop offset="0.0039" style="stop-color:#9DD7FF"/>
	<stop offset="0.2273" style="stop-color:#BDE5FF"/>
	<stop offset="0.4138" style="stop-color:#D1EEFF"/>
	<stop offset="0.5394" style="stop-color:#D9F1FF"/>
	<stop offset="0.6155" style="stop-color:#D5EFFE"/>
	<stop offset="0.6891" style="stop-color:#C9E7FA"/>
	<stop offset="0.7617" style="stop-color:#B6DAF3"/>
	<stop offset="0.8337" style="stop-color:#9AC8EA"/>
	<stop offset="0.9052" style="stop-color:#77B0DD"/>
	<stop offset="0.9754" style="stop-color:#4D94CF"/>
	<stop offset="1" style="stop-color:#3C89C9"/>
</linearGradient>
<path fill="url(#svg2.SVGID_2_)" d="M19.625,36.763c10.839,0,19.625-1.875,19.625-4.188l-1.229-2c0,2.168-8.235,3.927-18.396,3.927  c-9.481,0-17.396-1.959-18.396-3.927l-1.229,2C0,34.888,8.787,36.763,19.625,36.763z"/>
<path fill="#3C89C9" d="M19.625,26.468c10.16,0,19.625,2.775,19.625,2.775c-0.375,2.721-5.367,5.438-19.554,5.438  c-12.125,0-18.467-2.484-19.541-4.918C-0.127,29.125,9.465,26.468,19.625,26.468z"/>
<linearGradient gradientTransform="matrix(1 0 0 -1 -642.8008 -939.4756)" x1="642.8008" x2="682.0508" gradientUnits="userSpaceOnUse" y1="-965.6948" y2="-965.6948" id="svg2.SVGID_3_">
	<stop offset="0" style="stop-color:#3C89C9"/>
	<stop offset="0.1482" style="stop-color:#60A6DD"/>
	<stop offset="0.3113" style="stop-color:#81C1F0"/>
	<stop offset="0.4476" style="stop-color:#95D1FB"/>
	<stop offset="0.5394" style="stop-color:#9CD7FF"/>
	<stop offset="0.636" style="stop-color:#98D4FD"/>
	<stop offset="0.7293" style="stop-color:#8DCAF6"/>
	<stop offset="0.8214" style="stop-color:#79BBEB"/>
	<stop offset="0.912" style="stop-color:#5EA5DC"/>
	<stop offset="1" style="stop-color:#3C89C9"/>
</linearGradient>
<path fill="url(#svg2.SVGID_3_)" d="M19.625,23.313C8.787,23.313,0,21.438,0,19.125v10c0,2.313,8.787,4.188,19.625,4.188  c10.839,0,19.625-1.875,19.625-4.188v-10C39.25,21.438,30.464,23.313,19.625,23.313z"/>
<linearGradient gradientTransform="matrix(1 0 0 -1 -642.8008 -939.4756)" x1="642.8008" x2="682.0508" gradientUnits="userSpaceOnUse" y1="-959.6948" y2="-959.6948" id="svg2.SVGID_4_">
	<stop offset="0" style="stop-color:#9CD7FF"/>
	<stop offset="0.0039" style="stop-color:#9DD7FF"/>
	<stop offset="0.2273" style="stop-color:#BDE5FF"/>
	<stop offset="0.4138" style="stop-color:#D1EEFF"/>
	<stop offset="0.5394" style="stop-color:#D9F1FF"/>
	<stop offset="0.6155" style="stop-color:#D5EFFE"/>
	<stop offset="0.6891" style="stop-color:#C9E7FA"/>
	<stop offset="0.7617" style="stop-color:#B6DAF3"/>
	<stop offset="0.8337" style="stop-color:#9AC8EA"/>
	<stop offset="0.9052" style="stop-color:#77B0DD"/>
	<stop offset="0.9754" style="stop-color:#4D94CF"/>
	<stop offset="1" style="stop-color:#3C89C9"/>
</linearGradient>
<path fill="url(#svg2.SVGID_4_)" d="M19.625,23.313c10.839,0,19.625-1.875,19.625-4.188l-1.229-2c0,2.168-8.235,3.926-18.396,3.926  c-9.481,0-17.396-1.959-18.396-3.926l-1.229,2C0,21.438,8.787,23.313,19.625,23.313z"/>
<path fill="#3C89C9" d="M19.476,13.019c10.161,0,19.625,2.775,19.625,2.775c-0.375,2.721-5.367,5.438-19.555,5.438  c-12.125,0-18.467-2.485-19.541-4.918C-0.277,15.674,9.316,13.019,19.476,13.019z"/>
<linearGradient gradientTransform="matrix(1 0 0 -1 -642.8008 -939.4756)" x1="642.8008" x2="682.0508" gradientUnits="userSpaceOnUse" y1="-952.4946" y2="-952.4946" id="svg2.SVGID_5_">
	<stop offset="0" style="stop-color:#3C89C9"/>
	<stop offset="0.1482" style="stop-color:#60A6DD"/>
	<stop offset="0.3113" style="stop-color:#81C1F0"/>
	<stop offset="0.4476" style="stop-color:#95D1FB"/>
	<stop offset="0.5394" style="stop-color:#9CD7FF"/>
	<stop offset="0.636" style="stop-color:#98D4FD"/>
	<stop offset="0.7293" style="stop-color:#8DCAF6"/>
	<stop offset="0.8214" style="stop-color:#79BBEB"/>
	<stop offset="0.912" style="stop-color:#5EA5DC"/>
	<stop offset="1" style="stop-color:#3C89C9"/>
</linearGradient>
<path fill="url(#svg2.SVGID_5_)" d="M19.625,10.113C8.787,10.113,0,8.238,0,5.925v10c0,2.313,8.787,4.188,19.625,4.188  c10.839,0,19.625-1.875,19.625-4.188v-10C39.25,8.238,30.464,10.113,19.625,10.113z"/>
<linearGradient gradientTransform="matrix(1 0 0 -1 -642.8008 -939.4756)" x1="642.8008" x2="682.0508" gradientUnits="userSpaceOnUse" y1="-946.4946" y2="-946.4946" id="svg2.SVGID_6_">
	<stop offset="0" style="stop-color:#9CD7FF"/>
	<stop offset="0.0039" style="stop-color:#9DD7FF"/>
	<stop offset="0.2273" style="stop-color:#BDE5FF"/>
	<stop offset="0.4138" style="stop-color:#D1EEFF"/>
	<stop offset="0.5394" style="stop-color:#D9F1FF"/>
	<stop offset="0.6155" style="stop-color:#D5EFFE"/>
	<stop offset="0.6891" style="stop-color:#C9E7FA"/>
	<stop offset="0.7617" style="stop-color:#B6DAF3"/>
	<stop offset="0.8337" style="stop-color:#9AC8EA"/>
	<stop offset="0.9052" style="stop-color:#77B0DD"/>
	<stop offset="0.9754" style="stop-color:#4D94CF"/>
	<stop offset="1" style="stop-color:#3C89C9"/>
</linearGradient>
<path fill="url(#svg2.SVGID_6_)" d="M19.625,10.113c10.839,0,19.625-1.875,19.625-4.188l-1.229-2c0,2.168-8.235,3.926-18.396,3.926  c-9.481,0-17.396-1.959-18.396-3.926L0,5.925C0,8.238,8.787,10.113,19.625,10.113z"/>
<linearGradient gradientTransform="matrix(1 0 0 -1 -642.8008 -939.4756)" x1="644.0293" x2="680.8223" gradientUnits="userSpaceOnUse" y1="-943.4014" y2="-943.4014" id="svg2.SVGID_7_">
	<stop offset="0" style="stop-color:#9CD7FF"/>
	<stop offset="1" style="stop-color:#3C89C9"/>
</linearGradient>
<ellipse rx="18.396" fill="url(#svg2.SVGID_7_)" ry="3.926" cx="19.625" cy="3.926"/>
<path fill="#FFFFFF" d="M31.04,45.982c0,0-4.354,0.664-7.29,0.781  c-3.125,0.125-8.952,0-8.952,0l-2.384-10.292l0.044-2.108l-1.251-1.154L9.789,23.024l-0.082-0.119L9.5,20.529l-1.65-1.254  L5.329,8.793c0,0,4.213,0.903,7.234,1.07s8.375,0.25,8.375,0.25l3,9.875l-0.25,1.313l1.063,2.168l2.312,9.645l-0.521,1.416  l1.46,1.834L31.04,45.982z" enable-background="new    " opacity="0.24"/>
</svg>
      </g>
    </g>
    <g text-rendering="geometricPrecision" stroke-miterlimit="1.45" shape-rendering="geometricPrecision" font-family="sans-serif" transform="matrix(1,0,0,1,-62,149)" stroke-linecap="butt">
      <text x="647.7561" xml:space="preserve" y="-82.9638" clip-path="url(#clipPath2)" stroke="none">Disk</text>
      <path fill="none" d="M623.5868 20.9406 L603.5868 20.9406 L583.2165 20.9406 L583.2165 84.7089" clip-path="url(#clipPath2)"/>
      <path d="M583.2165 92.7089 L588.2165 80.7089 L583.2165 83.7089 L578.2165 80.7089 Z" clip-path="url(#clipPath2)" stroke="none"/>
      <text x="593.576" xml:space="preserve" y="18.8163" clip-path="url(#clipPath2)" stroke="none">pop</text>
      <path fill="none" d="M430.2925 -9.2444 L390.2263 -9.2444 L390.2263 84.3989 L390.2263 84.7215" clip-path="url(#clipPath2)"/>
      <path d="M390.2263 92.7215 L395.2263 80.7215 L390.2263 83.7215 L385.2263 80.7215 Z" clip-path="url(#clipPath2)" stroke="none"/>
      <text x="397.7005" xml:space="preserve" y="-17.106" clip-path="url(#clipPath2)" stroke="none">pop</text>
      <path fill="none" d="M511.7611 -9.2444 L561.994 -9.2444 L561.994 84.7413" clip-path="url(#clipPath2)"/>
      <path d="M561.994 92.7413 L566.994 80.7413 L561.994 83.7413 L556.994 80.7413 Z" clip-path="url(#clipPath2)" stroke="none"/>
      <text x="525.3" xml:space="preserve" y="-14.1798" clip-path="url(#clipPath2)" stroke="none">push</text>
      <path fill="none" d="M646.1648 10.2162 L594.3027 -50.1129" clip-path="url(#clipPath2)"/>
      <path d="M589.0876 -56.1794 L593.1187 -43.8202 L594.9547 -49.3546 L600.7018 -50.3391 Z" clip-path="url(#clipPath2)" stroke="none"/>
      <text x="623.6738" xml:space="preserve" y="-25.0875" clip-path="url(#clipPath2)" stroke="none">put</text>
      <path fill="none" d="M491.9518 -19.4294 L560.2617 -52.6782" clip-path="url(#clipPath2)"/>
      <path d="M567.4549 -56.1794 L554.4769 -55.4234 L559.3625 -52.2406 L558.8534 -46.4319 Z" clip-path="url(#clipPath2)" stroke="none"/>
      <text x="512.5513" xml:space="preserve" y="-39.5885" clip-path="url(#clipPath2)" stroke="none">get</text>
      <path fill="none" d="M471.0268 -19.4294 L471.0268 -48.1794" clip-path="url(#clipPath2)"/>
      <path d="M471.0268 -56.1794 L466.0268 -44.1794 L471.0268 -47.1794 L476.0268 -44.1794 Z" clip-path="url(#clipPath2)" stroke="none"/>
      <text x="450.9123" xml:space="preserve" y="-29.0661" clip-path="url(#clipPath2)" stroke="none">get</text>
      <path fill="none" d="M430.2925 20.9406 L390.2263 20.9406 L390.2263 66.7042 L390.2263 84.739" clip-path="url(#clipPath2)"/>
      <path d="M390.2263 92.739 L395.2263 80.739 L390.2263 83.739 L385.2263 80.739 Z" clip-path="url(#clipPath2)" stroke="none"/>
      <text x="398.0281" xml:space="preserve" y="18.2167" clip-path="url(#clipPath2)" stroke="none">pop</text>
      <path fill="none" d="M511.7611 20.9406 L561.994 20.9406 L561.994 84.7062" clip-path="url(#clipPath2)"/>
      <path d="M561.994 92.7062 L566.994 80.7062 L561.994 83.7062 L556.994 80.7062 Z" clip-path="url(#clipPath2)" stroke="none"/>
      <text x="524.5391" xml:space="preserve" y="15.3498" clip-path="url(#clipPath2)" stroke="none">push</text>
      <path fill="none" d="M430.2925 51.7091 L429.6381 51.7091 L390.2263 51.7091 L390.2263 84.7235" clip-path="url(#clipPath2)"/>
      <path d="M390.2263 92.7235 L395.2263 80.7235 L390.2263 83.7235 L385.2263 80.7235 Z" clip-path="url(#clipPath2)" stroke="none"/>
      <text x="399.9214" xml:space="preserve" y="45.4747" clip-path="url(#clipPath2)" stroke="none">pop</text>
      <path fill="none" d="M511.7611 51.7091 L561.994 51.7091 L561.994 84.7012" clip-path="url(#clipPath2)"/>
      <path d="M561.994 92.7012 L566.994 80.7012 L561.994 83.7012 L556.994 80.7012 Z" clip-path="url(#clipPath2)" stroke="none"/>
      <text x="524.5391" xml:space="preserve" y="45.1353" clip-path="url(#clipPath2)" stroke="none">push</text>
      <path fill="none" d="M241.8278 8.5981 L241.8278 -4.3639" clip-path="url(#clipPath2)"/>
      <path d="M241.8278 -12.3639 L236.8278 -0.3639 L241.8278 -3.3639 L246.8278 -0.3639 Z" clip-path="url(#clipPath2)" stroke="none"/>
      <path fill="none" d="M191.4278 -24.7064 L123.6829 -24.7064 L123.6829 -13.4315" clip-path="url(#clipPath2)"/>
      <path d="M123.6829 -5.4315 L128.6829 -17.4315 L123.6829 -14.4315 L118.6829 -17.4315 Z" clip-path="url(#clipPath2)" stroke="none"/>
      <text x="154.1902" xml:space="preserve" y="-31.2396" clip-path="url(#clipPath2)" stroke="none">read</text>
      <path fill="none" d="M292.2278 -24.7064 L370.1541 -24.7064 L368.6157 84.7134" clip-path="url(#clipPath2)"/>
      <path d="M368.5032 92.7126 L373.6714 80.7841 L368.6298 83.7135 L363.6724 80.6435 Z" clip-path="url(#clipPath2)" stroke="none"/>
      <text x="318.5898" xml:space="preserve" y="-30.5429" clip-path="url(#clipPath2)" stroke="none">push</text>
      <path fill="none" d="M241.8278 33.2831 L241.8278 46.245" clip-path="url(#clipPath2)"/>
      <path d="M241.8278 54.245 L246.8278 42.245 L241.8278 45.245 L236.8278 42.245 Z" clip-path="url(#clipPath2)" stroke="none"/>
      <path fill="none" d="M191.4278 66.5875 L123.6829 66.5875 L123.6829 52.8177" clip-path="url(#clipPath2)"/>
      <path d="M123.6829 44.8177 L118.6829 56.8177 L123.6829 53.8177 L128.6829 56.8177 Z" clip-path="url(#clipPath2)" stroke="none"/>
      <text x="155.7363" xml:space="preserve" y="60.0348" clip-path="url(#clipPath2)" stroke="none">read</text>
      <path fill="none" d="M292.2278 66.5875 L368.5028 66.5875 L368.5028 84.7158" clip-path="url(#clipPath2)"/>
      <path d="M368.5028 92.7158 L373.5028 80.7158 L368.5028 83.7158 L363.5028 80.7158 Z" clip-path="url(#clipPath2)" stroke="none"/>
      <text x="319.6032" xml:space="preserve" y="59.5222" clip-path="url(#clipPath2)" stroke="none">push</text>
      <path fill="none" d="M471.0268 72.304 L471.0268 61.894" clip-path="url(#clipPath2)"/>
      <path fill="none" d="M301.6735 20.9443 L292.2379 20.9455" clip-path="url(#clipPath2)"/>
      <path fill="none" d="M655.384 41.5355 L655.384 31.6649" clip-path="url(#clipPath2)"/>
      <path fill="none" d="M455.786 -78.6127 L463.4893 -71.0261" clip-path="url(#clipPath2)"/>
      <path fill="none" d="M582.7062 -78.6346 L582.7062 -71.0261" clip-path="url(#clipPath2)"/>
      <path fill="none" d="M97.3615 -21.0119 L97.3615 -5.4236" clip-path="url(#clipPath2)"/>
      <path fill="none" d="M607.5612 -63.6027 L637.5456 -63.6027" clip-path="url(#clipPath2)"/>
    </g>
  </g>
</svg>
