<?xml version="1.0" encoding="UTF-8"?><svg xmlns="http://www.w3.org/2000/svg" xmlns:xlink="http://www.w3.org/1999/xlink" fill-opacity="1" color-rendering="auto" color-interpolation="auto" text-rendering="auto" stroke="black" stroke-linecap="square" width="914" stroke-miterlimit="10" shape-rendering="auto" stroke-opacity="1" fill="black" stroke-dasharray="none" font-weight="normal" stroke-width="1" height="596" font-family="'Dialog'" font-style="normal" stroke-linejoin="miter" font-size="12px" stroke-dashoffset="0" image-rendering="auto">
  <!--Generated by ySVG 2.5-->
  <defs id="genericDefs"/>
  <g>
    <g fill="white" text-rendering="geometricPrecision" shape-rendering="geometricPrecision" transform="translate(-196,15)" stroke="white">
      <rect x="196" width="914" height="596" y="-15" clip-path="url(#clipPath2)" stroke="none"/>
    </g>
    <g fill="rgb(204,255,204)" text-rendering="geometricPrecision" shape-rendering="geometricPrecision" transform="matrix(1,0,0,1,-196,15)" stroke="rgb(204,255,204)">
      <rect x="540.6" width="100.8" height="41" y="104" clip-path="url(#clipPath2)" stroke="none"/>
    </g>
    <g text-rendering="geometricPrecision" stroke-miterlimit="1.45" shape-rendering="geometricPrecision" transform="matrix(1,0,0,1,-196,15)" stroke-linecap="butt">
      <rect fill="none" x="540.6" width="100.8" height="41" y="104" clip-path="url(#clipPath2)"/>
      <text x="558.9932" xml:space="preserve" y="129.2139" clip-path="url(#clipPath2)" font-family="sans-serif" stroke="none">SortMeRNA</text>
    </g>
    <g fill="rgb(204,255,204)" text-rendering="geometricPrecision" shape-rendering="geometricPrecision" transform="matrix(1,0,0,1,-196,15)" stroke="rgb(204,255,204)">
      <rect x="364" width="124" height="41" y="141" clip-path="url(#clipPath2)" stroke="none"/>
    </g>
    <g text-rendering="geometricPrecision" stroke-miterlimit="1.45" shape-rendering="geometricPrecision" transform="matrix(1,0,0,1,-196,15)" stroke-linecap="butt">
      <rect fill="none" x="364" width="124" height="41" y="141" clip-path="url(#clipPath2)"/>
      <text x="399.3193" xml:space="preserve" y="166.2139" clip-path="url(#clipPath2)" font-family="sans-serif" stroke="none">Reads file</text>
    </g>
    <g fill="rgb(204,255,204)" text-rendering="geometricPrecision" shape-rendering="geometricPrecision" transform="matrix(1,0,0,1,-196,15)" stroke="rgb(204,255,204)">
      <rect x="364" width="124" height="41" y="13" clip-path="url(#clipPath2)" stroke="none"/>
    </g>
    <g text-rendering="geometricPrecision" stroke-miterlimit="1.45" shape-rendering="geometricPrecision" transform="matrix(1,0,0,1,-196,15)" stroke-linecap="butt">
      <rect fill="none" x="364" width="124" height="41" y="13" clip-path="url(#clipPath2)"/>
      <text x="385.9805" xml:space="preserve" y="38.2139" clip-path="url(#clipPath2)" font-family="sans-serif" stroke="none">Reference files</text>
    </g>
    <g text-rendering="geometricPrecision" shape-rendering="geometricPrecision" transform="matrix(1,0,0,1,98.75,88.6935)">
      <g clip-path="url(#clipPath3)">
        <svg xml:space="preserve" opacity="1" writing-mode="lr-tb" stop-color="rgb(0, 0, 0)" shape-rendering="auto" glyph-orientation-horizontal="0deg" color-profile="auto" lighting-color="rgb(255, 255, 255)" color="rgb(0, 0, 0)" font-weight="400" alignment-baseline="auto" font-style="normal" version="1.1" color-interpolation-filters="linearrgb" text-anchor="start" stroke-linecap="butt" color-interpolation="srgb" font-variant="normal" word-spacing="normal" fill-opacity="1" text-rendering="auto" clip-path="none" text-decoration="none" letter-spacing="normal" viewBox="0 0 40 48" glyph-orientation-vertical="auto" display="inline" font-size-adjust="none" overflow="visible" fill="rgb(0, 0, 0)" font-stretch="normal" stroke-dasharray="none" stroke-miterlimit="4" stop-opacity="1" color-rendering="auto" font-size="12" pointer-events="visiblepainted" mask="none" direction="ltr" baseline-shift="baseline" enable-background="new 0 0 40 48" fill-rule="nonzero" image-rendering="auto" stroke-dashoffset="0" width="40px" marker-end="none" clip="auto" cursor="auto" stroke="none" filter="none" visibility="visible" kerning="auto" stroke-width="1" font-family="&quot;Arial&quot;,&quot;Helvetica&quot;,sans-serif" flood-opacity="1" clip-rule="nonzero" src="none" height="48px" unicode-bidi="normal" stroke-linejoin="miter" stroke-opacity="1" flood-color="rgb(0, 0, 0)" dominant-baseline="auto" marker-start="none" x="0px" marker-mid="none" y="0px">
<defs>
<clipPath clipPathUnits="userSpaceOnUse" id="clipPath1">
              <path d="M0 0 L914 0 L914 596 L0 596 L0 0 Z"/>
            </clipPath>
            <clipPath clipPathUnits="userSpaceOnUse" id="clipPath2">
              <path d="M196 -15 L1110 -15 L1110 581 L196 581 L196 -15 Z"/>
            </clipPath>
            <clipPath clipPathUnits="userSpaceOnUse" id="clipPath3">
              <path d="M-98.75 -88.6935 L815.25 -88.6935 L815.25 507.3065 L-98.75 507.3065 L-98.75 -88.6935 Z"/>
            </clipPath>
          </defs>
<linearGradient gradientTransform="matrix(1 0 0 1 -370.2002 -614.5742)" x1="370.2002" x2="409.4502" gradientUnits="userSpaceOnUse" y1="655.0938" y2="655.0938" id="svg1.SVGID_1_">
	<stop offset="0" style="stop-color:#4D4D4D"/>
	<stop offset="0.0558" style="stop-color:#5F5F5F"/>
	<stop offset="0.2103" style="stop-color:#8D8D8D"/>
	<stop offset="0.3479" style="stop-color:#AEAEAE"/>
	<stop offset="0.4623" style="stop-color:#C2C2C2"/>
	<stop offset="0.5394" style="stop-color:#C9C9C9"/>
	<stop offset="0.6247" style="stop-color:#C5C5C5"/>
	<stop offset="0.7072" style="stop-color:#BABABA"/>
	<stop offset="0.7885" style="stop-color:#A6A6A6"/>
	<stop offset="0.869" style="stop-color:#8B8B8B"/>
	<stop offset="0.9484" style="stop-color:#686868"/>
	<stop offset="1" style="stop-color:#4D4D4D"/>
</linearGradient>
<path fill="url(#svg1.SVGID_1_)" d="M19.625,37.613C8.787,37.613,0,35.738,0,33.425v10c0,2.313,8.787,4.188,19.625,4.188  c10.839,0,19.625-1.875,19.625-4.188v-10C39.25,35.738,30.464,37.613,19.625,37.613z"/>
<linearGradient gradientTransform="matrix(1 0 0 1 -370.2002 -614.5742)" x1="370.2002" x2="409.4502" gradientUnits="userSpaceOnUse" y1="649.0938" y2="649.0938" id="svg1.SVGID_2_">
	<stop offset="0" style="stop-color:#B3B3B3"/>
	<stop offset="0.0171" style="stop-color:#B6B6B6"/>
	<stop offset="0.235" style="stop-color:#D7D7D7"/>
	<stop offset="0.4168" style="stop-color:#EBEBEB"/>
	<stop offset="0.5394" style="stop-color:#F2F2F2"/>
	<stop offset="0.6579" style="stop-color:#EEEEEE"/>
	<stop offset="0.7724" style="stop-color:#E3E3E3"/>
	<stop offset="0.8853" style="stop-color:#CFCFCF"/>
	<stop offset="0.9965" style="stop-color:#B4B4B4"/>
	<stop offset="1" style="stop-color:#B3B3B3"/>
</linearGradient>
<path fill="url(#svg1.SVGID_2_)" d="M19.625,37.613c10.839,0,19.625-1.875,19.625-4.188l-1.229-2c0,2.168-8.235,3.927-18.396,3.927  c-9.481,0-17.396-1.959-18.396-3.927l-1.229,2C0,35.738,8.787,37.613,19.625,37.613z"/>
<linearGradient gradientTransform="matrix(1 0 0 1 -370.2002 -614.5742)" x1="371.4297" x2="408.2217" gradientUnits="userSpaceOnUse" y1="646" y2="646" id="svg1.SVGID_3_">
	<stop offset="0" style="stop-color:#C9C9C9"/>
	<stop offset="1" style="stop-color:#808080"/>
</linearGradient>
<ellipse rx="18.396" fill="url(#svg1.SVGID_3_)" ry="3.926" cx="19.625" cy="31.425"/>
<linearGradient gradientTransform="matrix(1 0 0 1 -370.2002 -614.5742)" x1="370.2002" x2="409.4502" gradientUnits="userSpaceOnUse" y1="641.0938" y2="641.0938" id="svg1.SVGID_4_">
	<stop offset="0" style="stop-color:#4D4D4D"/>
	<stop offset="0.0558" style="stop-color:#5F5F5F"/>
	<stop offset="0.2103" style="stop-color:#8D8D8D"/>
	<stop offset="0.3479" style="stop-color:#AEAEAE"/>
	<stop offset="0.4623" style="stop-color:#C2C2C2"/>
	<stop offset="0.5394" style="stop-color:#C9C9C9"/>
	<stop offset="0.6247" style="stop-color:#C5C5C5"/>
	<stop offset="0.7072" style="stop-color:#BABABA"/>
	<stop offset="0.7885" style="stop-color:#A6A6A6"/>
	<stop offset="0.869" style="stop-color:#8B8B8B"/>
	<stop offset="0.9484" style="stop-color:#686868"/>
	<stop offset="1" style="stop-color:#4D4D4D"/>
</linearGradient>
<path fill="url(#svg1.SVGID_4_)" d="M19.625,23.613C8.787,23.613,0,21.738,0,19.425v10c0,2.313,8.787,4.188,19.625,4.188  c10.839,0,19.625-1.875,19.625-4.188v-10C39.25,21.738,30.464,23.613,19.625,23.613z"/>
<linearGradient gradientTransform="matrix(1 0 0 1 -370.2002 -614.5742)" x1="370.2002" x2="409.4502" gradientUnits="userSpaceOnUse" y1="635.0938" y2="635.0938" id="svg1.SVGID_5_">
	<stop offset="0" style="stop-color:#B3B3B3"/>
	<stop offset="0.0171" style="stop-color:#B6B6B6"/>
	<stop offset="0.235" style="stop-color:#D7D7D7"/>
	<stop offset="0.4168" style="stop-color:#EBEBEB"/>
	<stop offset="0.5394" style="stop-color:#F2F2F2"/>
	<stop offset="0.6579" style="stop-color:#EEEEEE"/>
	<stop offset="0.7724" style="stop-color:#E3E3E3"/>
	<stop offset="0.8853" style="stop-color:#CFCFCF"/>
	<stop offset="0.9965" style="stop-color:#B4B4B4"/>
	<stop offset="1" style="stop-color:#B3B3B3"/>
</linearGradient>
<path fill="url(#svg1.SVGID_5_)" d="M19.625,23.613c10.839,0,19.625-1.875,19.625-4.188l-1.229-2c0,2.168-8.235,3.926-18.396,3.926  c-9.481,0-17.396-1.959-18.396-3.926l-1.229,2C0,21.738,8.787,23.613,19.625,23.613z"/>
<linearGradient gradientTransform="matrix(1 0 0 1 -370.2002 -614.5742)" x1="371.4297" x2="408.2217" gradientUnits="userSpaceOnUse" y1="632" y2="632" id="svg1.SVGID_6_">
	<stop offset="0" style="stop-color:#C9C9C9"/>
	<stop offset="1" style="stop-color:#808080"/>
</linearGradient>
<ellipse rx="18.396" fill="url(#svg1.SVGID_6_)" ry="3.926" cx="19.625" cy="17.426"/>
<linearGradient gradientTransform="matrix(1 0 0 1 -370.2002 -614.5742)" x1="370.2002" x2="409.4502" gradientUnits="userSpaceOnUse" y1="627.5938" y2="627.5938" id="svg1.SVGID_7_">
	<stop offset="0" style="stop-color:#4D4D4D"/>
	<stop offset="0.0558" style="stop-color:#5F5F5F"/>
	<stop offset="0.2103" style="stop-color:#8D8D8D"/>
	<stop offset="0.3479" style="stop-color:#AEAEAE"/>
	<stop offset="0.4623" style="stop-color:#C2C2C2"/>
	<stop offset="0.5394" style="stop-color:#C9C9C9"/>
	<stop offset="0.6247" style="stop-color:#C5C5C5"/>
	<stop offset="0.7072" style="stop-color:#BABABA"/>
	<stop offset="0.7885" style="stop-color:#A6A6A6"/>
	<stop offset="0.869" style="stop-color:#8B8B8B"/>
	<stop offset="0.9484" style="stop-color:#686868"/>
	<stop offset="1" style="stop-color:#4D4D4D"/>
</linearGradient>
<path fill="url(#svg1.SVGID_7_)" d="M19.625,10.113C8.787,10.113,0,8.238,0,5.925v10c0,2.313,8.787,4.188,19.625,4.188  c10.839,0,19.625-1.875,19.625-4.188v-10C39.25,8.238,30.464,10.113,19.625,10.113z"/>
<linearGradient gradientTransform="matrix(1 0 0 1 -370.2002 -614.5742)" x1="370.2002" x2="409.4502" gradientUnits="userSpaceOnUse" y1="621.5938" y2="621.5938" id="svg1.SVGID_8_">
	<stop offset="0" style="stop-color:#B3B3B3"/>
	<stop offset="0.0171" style="stop-color:#B6B6B6"/>
	<stop offset="0.235" style="stop-color:#D7D7D7"/>
	<stop offset="0.4168" style="stop-color:#EBEBEB"/>
	<stop offset="0.5394" style="stop-color:#F2F2F2"/>
	<stop offset="0.6579" style="stop-color:#EEEEEE"/>
	<stop offset="0.7724" style="stop-color:#E3E3E3"/>
	<stop offset="0.8853" style="stop-color:#CFCFCF"/>
	<stop offset="0.9965" style="stop-color:#B4B4B4"/>
	<stop offset="1" style="stop-color:#B3B3B3"/>
</linearGradient>
<path fill="url(#svg1.SVGID_8_)" d="M19.625,10.113c10.839,0,19.625-1.875,19.625-4.188l-1.229-2c0,2.168-8.235,3.926-18.396,3.926  c-9.481,0-17.396-1.959-18.396-3.926L0,5.925C0,8.238,8.787,10.113,19.625,10.113z"/>
<linearGradient gradientTransform="matrix(1 0 0 1 -370.2002 -614.5742)" x1="371.4297" x2="408.2217" gradientUnits="userSpaceOnUse" y1="618.5" y2="618.5" id="svg1.SVGID_9_">
	<stop offset="0" style="stop-color:#C9C9C9"/>
	<stop offset="1" style="stop-color:#808080"/>
</linearGradient>
<ellipse rx="18.396" fill="url(#svg1.SVGID_9_)" ry="3.926" cx="19.625" cy="3.926"/>
<path fill="#FFFFFF" d="M31.291,46.792c0,0-4.313,0.578-7.249,0.694  C20.917,47.613,15,47.613,15,47.613l-2.443-10.279l-0.119-2.283l-1.231-1.842L9.789,23.024l-0.082-0.119L9.3,20.715l-1.45-1.44  L5.329,8.793c0,0,5.296,0.882,7.234,1.07s8.375,0.25,8.375,0.25l3,9.875l-0.25,1.313l1.063,2.168l2.312,9.644l-0.375,1.875  l1.627,2.193L31.291,46.792z" enable-background="new    " opacity="0.24"/>
</svg>
      </g>
    </g>
    <g text-rendering="geometricPrecision" stroke-miterlimit="1.45" shape-rendering="geometricPrecision" font-family="sans-serif" transform="matrix(1,0,0,1,-196,15)" stroke-linecap="butt">
      <text x="302.709" xml:space="preserve" y="139.371" clip-path="url(#clipPath2)" stroke="none">Disk</text>
    </g>
    <g fill="rgb(204,255,204)" text-rendering="geometricPrecision" shape-rendering="geometricPrecision" transform="matrix(1,0,0,1,-196,15)" stroke="rgb(204,255,204)">
      <rect x="364" width="124" height="41" y="77" clip-path="url(#clipPath2)" stroke="none"/>
    </g>
    <g text-rendering="geometricPrecision" stroke-miterlimit="1.45" shape-rendering="geometricPrecision" transform="matrix(1,0,0,1,-196,15)" stroke-linecap="butt">
      <rect fill="none" x="364" width="124" height="41" y="77" clip-path="url(#clipPath2)"/>
      <text x="411.3223" xml:space="preserve" y="102.2139" clip-path="url(#clipPath2)" font-family="sans-serif" stroke="none">Index</text>
    </g>
    <g fill="rgb(204,255,204)" text-rendering="geometricPrecision" shape-rendering="geometricPrecision" transform="matrix(1,0,0,1,-196,15)" stroke="rgb(204,255,204)">
      <rect x="774" width="124" height="41" y="0" clip-path="url(#clipPath2)" stroke="none"/>
    </g>
    <g text-rendering="geometricPrecision" stroke-miterlimit="1.45" shape-rendering="geometricPrecision" transform="matrix(1,0,0,1,-196,15)" stroke-linecap="butt">
      <rect fill="none" x="774" width="124" height="41" y="0" clip-path="url(#clipPath2)"/>
      <text x="790.9912" xml:space="preserve" y="25.2139" clip-path="url(#clipPath2)" font-family="sans-serif" stroke="none">Blast file (--blast)</text>
    </g>
    <g fill="rgb(204,255,204)" text-rendering="geometricPrecision" shape-rendering="geometricPrecision" transform="matrix(1,0,0,1,-196,15)" stroke="rgb(204,255,204)">
      <rect x="774" width="124" height="41" y="52" clip-path="url(#clipPath2)" stroke="none"/>
    </g>
    <g text-rendering="geometricPrecision" stroke-miterlimit="1.45" shape-rendering="geometricPrecision" transform="matrix(1,0,0,1,-196,15)" stroke-linecap="butt">
      <rect fill="none" x="774" width="124" height="41" y="52" clip-path="url(#clipPath2)"/>
      <text x="789.3271" xml:space="preserve" y="77.2139" clip-path="url(#clipPath2)" font-family="sans-serif" stroke="none">Fasta file (--fastx)</text>
    </g>
    <g fill="rgb(204,255,204)" text-rendering="geometricPrecision" shape-rendering="geometricPrecision" transform="matrix(1,0,0,1,-196,15)" stroke="rgb(204,255,204)">
      <rect x="774" width="124" height="41" y="104" clip-path="url(#clipPath2)" stroke="none"/>
    </g>
    <g text-rendering="geometricPrecision" stroke-miterlimit="1.45" shape-rendering="geometricPrecision" transform="matrix(1,0,0,1,-196,15)" stroke-linecap="butt">
      <rect fill="none" x="774" width="124" height="41" y="104" clip-path="url(#clipPath2)"/>
      <text x="805.9824" xml:space="preserve" y="129.2139" clip-path="url(#clipPath2)" font-family="sans-serif" stroke="none">Denovo file</text>
    </g>
    <g fill="rgb(204,255,204)" text-rendering="geometricPrecision" shape-rendering="geometricPrecision" transform="matrix(1,0,0,1,-196,15)" stroke="rgb(204,255,204)">
      <rect x="774" width="124" height="41" y="156" clip-path="url(#clipPath2)" stroke="none"/>
    </g>
    <g text-rendering="geometricPrecision" stroke-miterlimit="1.45" shape-rendering="geometricPrecision" transform="matrix(1,0,0,1,-196,15)" stroke-linecap="butt">
      <rect fill="none" x="774" width="124" height="41" y="156" clip-path="url(#clipPath2)"/>
      <text x="792.667" xml:space="preserve" y="181.2139" clip-path="url(#clipPath2)" font-family="sans-serif" stroke="none">SAM file (--sam)</text>
    </g>
    <g fill="rgb(204,255,204)" text-rendering="geometricPrecision" shape-rendering="geometricPrecision" transform="matrix(1,0,0,1,-196,15)" stroke="rgb(204,255,204)">
      <rect x="774" width="124" height="41" y="208" clip-path="url(#clipPath2)" stroke="none"/>
    </g>
    <g text-rendering="geometricPrecision" stroke-miterlimit="1.45" shape-rendering="geometricPrecision" transform="matrix(1,0,0,1,-196,15)" stroke-linecap="butt">
      <rect fill="none" x="774" width="124" height="41" y="208" clip-path="url(#clipPath2)"/>
      <text x="798.9863" xml:space="preserve" y="233.2139" clip-path="url(#clipPath2)" font-family="sans-serif" stroke="none">Log file (--log)</text>
    </g>
    <g fill="rgb(204,255,204)" text-rendering="geometricPrecision" shape-rendering="geometricPrecision" transform="matrix(1,0,0,1,-196,15)" stroke="rgb(204,255,204)">
      <rect x="673.7" width="100.8" height="29" y="318" clip-path="url(#clipPath2)" stroke="none"/>
    </g>
    <g text-rendering="geometricPrecision" stroke-miterlimit="1.45" shape-rendering="geometricPrecision" transform="matrix(1,0,0,1,-196,15)" stroke-linecap="butt">
      <rect fill="none" x="673.7" width="100.8" height="29" y="318" clip-path="url(#clipPath2)"/>
      <text x="693.4174" xml:space="preserve" y="337.2139" clip-path="url(#clipPath2)" font-family="sans-serif" stroke="none">writeQueue</text>
    </g>
    <g fill="rgb(204,255,204)" text-rendering="geometricPrecision" shape-rendering="geometricPrecision" transform="matrix(1,0,0,1,-196,15)" stroke="rgb(204,255,204)">
      <rect x="497" width="100.8" height="29" y="318" clip-path="url(#clipPath2)" stroke="none"/>
    </g>
    <g text-rendering="geometricPrecision" stroke-miterlimit="1.45" shape-rendering="geometricPrecision" transform="matrix(1,0,0,1,-196,15)" stroke-linecap="butt">
      <rect fill="none" x="497" width="100.8" height="29" y="318" clip-path="url(#clipPath2)"/>
      <text x="517.3766" xml:space="preserve" y="337.2139" clip-path="url(#clipPath2)" font-family="sans-serif" stroke="none">readQueue</text>
    </g>
    <g fill="rgb(204,255,204)" text-rendering="geometricPrecision" shape-rendering="geometricPrecision" transform="matrix(1,0,0,1,-196,15)" stroke="rgb(204,255,204)">
      <rect x="211.3" width="100.8" height="29" y="318" clip-path="url(#clipPath2)" stroke="none"/>
    </g>
    <g text-rendering="geometricPrecision" stroke-miterlimit="1.45" shape-rendering="geometricPrecision" transform="matrix(1,0,0,1,-196,15)" stroke-linecap="butt">
      <rect fill="none" x="211.3" width="100.8" height="29" y="318" clip-path="url(#clipPath2)"/>
      <text x="235.0193" xml:space="preserve" y="337.2139" clip-path="url(#clipPath2)" font-family="sans-serif" stroke="none">Reads file</text>
    </g>
    <g fill="rgb(204,255,204)" text-rendering="geometricPrecision" shape-rendering="geometricPrecision" transform="matrix(1,0,0,1,-196,15)" stroke="rgb(204,255,204)">
      <rect x="763.4" width="100.8" height="29" y="416.4" clip-path="url(#clipPath2)" stroke="none"/>
    </g>
    <g text-rendering="geometricPrecision" stroke-miterlimit="1.45" shape-rendering="geometricPrecision" transform="matrix(1,0,0,1,-196,15)" stroke-linecap="butt">
      <rect fill="none" x="763.4" width="100.8" height="29" y="416.4" clip-path="url(#clipPath2)"/>
      <text x="797.8039" xml:space="preserve" y="435.6139" clip-path="url(#clipPath2)" font-family="sans-serif" stroke="none">Writer</text>
    </g>
    <g fill="rgb(204,255,204)" text-rendering="geometricPrecision" shape-rendering="geometricPrecision" transform="matrix(1,0,0,1,-196,15)" stroke="rgb(204,255,204)">
      <rect x="582.8" width="100.8" height="29" y="416.4" clip-path="url(#clipPath2)" stroke="none"/>
    </g>
    <g text-rendering="geometricPrecision" stroke-miterlimit="1.45" shape-rendering="geometricPrecision" transform="matrix(1,0,0,1,-196,15)" stroke-linecap="butt">
      <rect fill="none" x="582.8" width="100.8" height="29" y="416.4" clip-path="url(#clipPath2)"/>
      <text x="606.1912" xml:space="preserve" y="435.6139" clip-path="url(#clipPath2)" font-family="sans-serif" stroke="none">Processor</text>
    </g>
    <g fill="rgb(204,255,204)" text-rendering="geometricPrecision" shape-rendering="geometricPrecision" transform="matrix(1,0,0,1,-196,15)" stroke="rgb(204,255,204)">
      <rect x="418.8" width="100.8" height="29" y="416.4" clip-path="url(#clipPath2)" stroke="none"/>
    </g>
    <g text-rendering="geometricPrecision" stroke-miterlimit="1.45" shape-rendering="geometricPrecision" transform="matrix(1,0,0,1,-196,15)" stroke-linecap="butt">
      <rect fill="none" x="418.8" width="100.8" height="29" y="416.4" clip-path="url(#clipPath2)"/>
      <text x="449.5213" xml:space="preserve" y="435.6139" clip-path="url(#clipPath2)" font-family="sans-serif" stroke="none">Reader</text>
    </g>
    <g fill="rgb(204,255,204)" text-rendering="geometricPrecision" shape-rendering="geometricPrecision" transform="matrix(1,0,0,1,-196,15)" stroke="rgb(204,255,204)">
      <rect x="993.4" width="100.8" height="29" y="318" clip-path="url(#clipPath2)" stroke="none"/>
    </g>
    <g text-rendering="geometricPrecision" stroke-miterlimit="1.45" shape-rendering="geometricPrecision" transform="matrix(1,0,0,1,-196,15)" stroke-linecap="butt">
      <rect fill="none" x="993.4" width="100.8" height="29" y="318" clip-path="url(#clipPath2)"/>
      <text x="1014.4504" xml:space="preserve" y="337.2139" clip-path="url(#clipPath2)" font-family="sans-serif" stroke="none">rocksdb db</text>
    </g>
    <g fill="rgb(204,255,204)" text-rendering="geometricPrecision" shape-rendering="geometricPrecision" transform="matrix(1,0,0,1,-196,15)" stroke="rgb(204,255,204)">
      <rect x="850.4" width="100.8" height="29" y="318" clip-path="url(#clipPath2)" stroke="none"/>
    </g>
    <g text-rendering="geometricPrecision" stroke-miterlimit="1.45" shape-rendering="geometricPrecision" transform="matrix(1,0,0,1,-196,15)" stroke-linecap="butt">
      <rect fill="none" x="850.4" width="100.8" height="29" y="318" clip-path="url(#clipPath2)"/>
      <text x="888.1262" xml:space="preserve" y="337.2139" clip-path="url(#clipPath2)" font-family="sans-serif" stroke="none">kvdb</text>
    </g>
    <g fill="rgb(204,255,204)" text-rendering="geometricPrecision" shape-rendering="geometricPrecision" transform="matrix(1,0,0,1,-196,15)" stroke="rgb(204,255,204)">
      <rect x="342.1" width="100.8" height="29" y="318" clip-path="url(#clipPath2)" stroke="none"/>
    </g>
    <g text-rendering="geometricPrecision" stroke-miterlimit="1.45" shape-rendering="geometricPrecision" transform="matrix(1,0,0,1,-196,15)" stroke-linecap="butt">
      <rect fill="none" x="342.1" width="100.8" height="29" y="318" clip-path="url(#clipPath2)"/>
      <text x="374.1631" xml:space="preserve" y="337.2139" clip-path="url(#clipPath2)" font-family="sans-serif" stroke="none">stream</text>
    </g>
    <g fill="rgb(204,255,204)" text-rendering="geometricPrecision" shape-rendering="geometricPrecision" transform="matrix(1,0,0,1,-196,15)" stroke="rgb(204,255,204)">
      <rect x="582.8" width="100.8" height="29" y="483" clip-path="url(#clipPath2)" stroke="none"/>
    </g>
    <g text-rendering="geometricPrecision" stroke-miterlimit="1.45" shape-rendering="geometricPrecision" transform="matrix(1,0,0,1,-196,15)" stroke-linecap="butt">
      <rect fill="none" x="582.8" width="100.8" height="29" y="483" clip-path="url(#clipPath2)"/>
      <text x="615.1883" xml:space="preserve" y="502.2139" clip-path="url(#clipPath2)" font-family="sans-serif" stroke="none">aligner</text>
    </g>
    <g fill="rgb(204,255,204)" text-rendering="geometricPrecision" shape-rendering="geometricPrecision" transform="matrix(1,0,0,1,-196,15)" stroke="rgb(204,255,204)">
      <rect x="567.8" width="130.8" height="29" y="536.4" clip-path="url(#clipPath2)" stroke="none"/>
    </g>
    <g text-rendering="geometricPrecision" stroke-miterlimit="1.45" shape-rendering="geometricPrecision" transform="matrix(1,0,0,1,-196,15)" stroke-linecap="butt">
      <rect fill="none" x="567.8" width="130.8" height="29" y="536.4" clip-path="url(#clipPath2)"/>
      <text x="574.158" xml:space="preserve" y="555.6139" clip-path="url(#clipPath2)" font-family="sans-serif" stroke="none">Levenstein automaton</text>
    </g>
    <g fill="rgb(204,255,204)" text-rendering="geometricPrecision" shape-rendering="geometricPrecision" transform="matrix(1,0,0,1,-196,15)" stroke="rgb(204,255,204)">
      <rect x="211.3" width="100.8" height="29" y="483" clip-path="url(#clipPath2)" stroke="none"/>
    </g>
    <g text-rendering="geometricPrecision" stroke-miterlimit="1.45" shape-rendering="geometricPrecision" transform="matrix(1,0,0,1,-196,15)" stroke-linecap="butt">
      <rect fill="none" x="211.3" width="100.8" height="29" y="483" clip-path="url(#clipPath2)"/>
      <text x="247.0223" xml:space="preserve" y="502.2139" clip-path="url(#clipPath2)" font-family="sans-serif" stroke="none">Index</text>
    </g>
    <g fill="rgb(204,255,204)" text-rendering="geometricPrecision" shape-rendering="geometricPrecision" transform="matrix(1,0,0,1,-196,15)" stroke="rgb(204,255,204)">
      <rect x="881.4" width="100.8" height="29" y="536.4" clip-path="url(#clipPath2)" stroke="none"/>
    </g>
    <g text-rendering="geometricPrecision" stroke-miterlimit="1.45" shape-rendering="geometricPrecision" transform="matrix(1,0,0,1,-196,15)" stroke-linecap="butt">
      <rect fill="none" x="881.4" width="100.8" height="29" y="536.4" clip-path="url(#clipPath2)"/>
      <text x="885.1154" xml:space="preserve" y="555.6139" clip-path="url(#clipPath2)" font-family="sans-serif" stroke="none">Report Processor</text>
    </g>
    <g fill="rgb(204,255,204)" text-rendering="geometricPrecision" shape-rendering="geometricPrecision" transform="matrix(1,0,0,1,-196,15)" stroke="rgb(204,255,204)">
      <rect x="881.4" width="100.8" height="29" y="494.2" clip-path="url(#clipPath2)" stroke="none"/>
    </g>
    <g text-rendering="geometricPrecision" stroke-miterlimit="1.45" shape-rendering="geometricPrecision" transform="matrix(1,0,0,1,-196,15)" stroke-linecap="butt">
      <rect fill="none" x="881.4" width="100.8" height="29" y="494.2" clip-path="url(#clipPath2)"/>
      <text x="890.7873" xml:space="preserve" y="513.4139" clip-path="url(#clipPath2)" font-family="sans-serif" stroke="none">Post-Processor</text>
      <path fill="none" d="M495.8062 145.8465 L540.6 135.8018" clip-path="url(#clipPath2)"/>
      <path d="M488 147.597 L500.8033 149.8501 L496.7819 145.6277 L498.6152 140.0924 Z" clip-path="url(#clipPath2)" stroke="none"/>
      <path fill="none" d="M390.2451 54 L333.9723 86.2639" clip-path="url(#clipPath2)"/>
      <path fill="none" d="M334.0238 108.7656 L390.2451 141" clip-path="url(#clipPath2)"/>
      <path fill="none" d="M334.0238 97.5 L364 97.5" clip-path="url(#clipPath2)"/>
      <path fill="none" stroke-dasharray="12,4" d="M426 54 L426 77" stroke-width="2" clip-path="url(#clipPath2)"/>
      <path fill="none" d="M495.895 108.9374 L540.6 116.2527" clip-path="url(#clipPath2)"/>
      <path d="M488 107.6455 L499.0351 114.5177 L496.8819 109.0989 L500.6499 104.6489 Z" clip-path="url(#clipPath2)" stroke="none"/>
      <path fill="none" d="M639.2933 104 L780.3427 44.1259" clip-path="url(#clipPath2)"/>
      <path d="M787.7067 41 L774.707 41.0864 L779.4222 44.5167 L778.6144 50.2914 Z" clip-path="url(#clipPath2)" stroke="none"/>
      <path fill="none" d="M641.4 113.8029 L766.1743 87.3201" clip-path="url(#clipPath2)"/>
      <path d="M774 85.6592 L761.2234 83.2596 L765.1961 87.5278 L763.2996 93.0417 Z" clip-path="url(#clipPath2)" stroke="none"/>
      <path fill="none" d="M641.4 124.5 L766 124.5" clip-path="url(#clipPath2)"/>
      <path d="M774 124.5 L762 119.5 L765 124.5 L762 129.5 Z" clip-path="url(#clipPath2)" stroke="none"/>
      <path fill="none" d="M641.4 135.1971 L766.1743 161.6799" clip-path="url(#clipPath2)"/>
      <path d="M774 163.3408 L763.2996 155.9583 L765.1961 161.4722 L761.2234 165.7404 Z" clip-path="url(#clipPath2)" stroke="none"/>
      <path fill="none" d="M639.2933 145 L780.3427 204.8741" clip-path="url(#clipPath2)"/>
      <path d="M787.7067 208 L778.6144 198.7086 L779.4222 204.4833 L774.707 207.9136 Z" clip-path="url(#clipPath2)" stroke="none"/>
      <path fill="none" d="M800.582 416.4 L742.7075 352.9122" clip-path="url(#clipPath2)"/>
      <path d="M737.318 347 L741.7071 359.2367 L743.3812 353.6512 L749.0973 352.4998 Z" clip-path="url(#clipPath2)" stroke="none"/>
      <text x="742.9285" xml:space="preserve" y="386.4139" clip-path="url(#clipPath2)" font-family="sans-serif" stroke="none">pop Read</text>
      <path fill="none" d="M620.5567 416.4 L565.3009 353.0297" clip-path="url(#clipPath2)"/>
      <path d="M560.0433 347 L564.1611 359.3306 L565.9581 353.7834 L571.6983 352.7585 Z" clip-path="url(#clipPath2)" stroke="none"/>
      <text x="564.2785" xml:space="preserve" y="386.4139" clip-path="url(#clipPath2)" font-family="sans-serif" stroke="none">pop Read</text>
      <path fill="none" d="M646.5948 416.4 L705.2767 352.8764" clip-path="url(#clipPath2)"/>
      <path d="M710.7052 347 L698.8898 352.4218 L704.5982 353.6109 L706.2352 359.2073 Z" clip-path="url(#clipPath2)" stroke="none"/>
      <text x="649.6285" xml:space="preserve" y="386.4139" clip-path="url(#clipPath2)" font-family="sans-serif" stroke="none">push Read</text>
      <path fill="none" d="M480.7234 416.4 L530.8993 353.2631" clip-path="url(#clipPath2)"/>
      <path d="M535.8766 347 L524.4962 353.2838 L530.2771 354.0459 L532.325 359.5054 Z" clip-path="url(#clipPath2)" stroke="none"/>
      <text x="479.2785" xml:space="preserve" y="386.4139" clip-path="url(#clipPath2)" font-family="sans-serif" stroke="none">push Read</text>
      <path fill="none" d="M826.6201 416.4 L882.6808 352.9934" clip-path="url(#clipPath2)"/>
      <path d="M887.9799 347 L876.2855 352.6782 L882.0185 353.7426 L883.7772 359.3019 Z" clip-path="url(#clipPath2)" stroke="none"/>
      <text x="871.6245" xml:space="preserve" y="382.4995" clip-path="url(#clipPath2)" font-family="sans-serif" stroke="none">kvdb.put</text>
      <text x="871.6245" xml:space="preserve" y="397.2007" clip-path="url(#clipPath2)" font-family="sans-serif" stroke="none">kvdb.get</text>
      <path fill="none" stroke-dasharray="12,4" d="M951.2 332.5 L987.775 332.5" stroke-width="2" clip-path="url(#clipPath2)"/>
      <path stroke-dasharray="12,4" d="M992.275 332.5 L978.775 325.75 L992.275 332.5 L978.775 339.25 Z" stroke-width="2" clip-path="url(#clipPath2)" stroke="none"/>
      <path fill="none" stroke-miterlimit="10" d="M992.275 332.5 L978.775 325.75 L992.275 332.5 L978.775 339.25 Z" clip-path="url(#clipPath2)" stroke-linecap="square"/>
      <path fill="none" d="M457.8977 416.4 L408.7205 353.3096" clip-path="url(#clipPath2)"/>
      <path d="M403.8023 347 L407.2361 359.5383 L409.3353 354.0983 L415.1231 353.3906 Z" clip-path="url(#clipPath2)" stroke="none"/>
      <text x="405.8305" xml:space="preserve" y="386.4139" clip-path="url(#clipPath2)" font-family="sans-serif" stroke="none">read Line</text>
      <path fill="none" d="M342.1 332.5 L312.1 332.5" clip-path="url(#clipPath2)"/>
      <path fill="none" d="M633.2 445.4 L633.2 475" clip-path="url(#clipPath2)"/>
      <path d="M633.2 483 L638.2 471 L633.2 474 L628.2 471 Z" clip-path="url(#clipPath2)" stroke="none"/>
      <text x="620.5233" xml:space="preserve" y="468.9139" clip-path="url(#clipPath2)" font-family="sans-serif" stroke="none">align</text>
      <path fill="none" d="M633.2 512 L633.2 528.4" clip-path="url(#clipPath2)"/>
      <path d="M633.2 536.4 L638.2 524.4 L633.2 527.4 L628.2 524.4 Z" clip-path="url(#clipPath2)" stroke="none"/>
      <path fill="none" d="M582.8 497.5 L320.1 497.5" clip-path="url(#clipPath2)"/>
      <path d="M312.1 497.5 L324.1 502.5 L321.1 497.5 L324.1 492.5 Z" clip-path="url(#clipPath2)" stroke="none"/>
    </g>
  </g>
</svg>
